<svg width="41" height="42" viewBox="0 0 41 42" fill="none" xmlns="http://www.w3.org/2000/svg">
<g clip-path="url(#clip0_45_193)">
<path d="M20.693 16.2241C18.2242 16.2241 16.2144 18.2309 16.2144 20.7001C16.2144 23.1671 18.2241 25.1757 20.693 25.1757C23.1619 25.1757 25.1719 23.167 25.1719 20.7001C25.1718 18.231 23.1618 16.2241 20.693 16.2241Z" fill="white"/>
<path d="M26.068 9.03271H15.3185C11.8607 9.03271 8.96875 11.8737 8.96875 15.3284V26.0706C8.96875 29.5256 11.8607 32.3515 15.3185 32.3515H26.068C29.5253 32.3515 32.3729 29.5256 32.3729 26.0706V15.3284C32.3729 11.8737 29.5253 9.03271 26.068 9.03271ZM20.693 27.8609C16.7355 27.8609 13.5268 24.6545 13.5268 20.6999C13.5268 16.7447 16.7355 13.5383 20.693 13.5383C24.6507 13.5383 27.8592 16.7447 27.8592 20.6999C27.8592 24.6545 24.6507 27.8609 20.693 27.8609ZM28.3969 13.9555C27.8693 13.9555 27.4416 13.5281 27.4416 13.0011C27.4416 12.4742 27.8693 12.0469 28.3969 12.0469C28.9238 12.0469 29.3515 12.4742 29.3515 13.0011C29.3515 13.5281 28.9238 13.9555 28.3969 13.9555Z" fill="white"/>
<path d="M30.75 0.491211H10.25C4.5891 0.491211 0 5.08031 0 10.7412V31.2412C0 36.9021 4.5891 41.4912 10.25 41.4912H30.75C36.4109 41.4912 41 36.9021 41 31.2412V10.7412C41 5.08031 36.4109 0.491211 30.75 0.491211ZM35.1063 26.0708C35.1063 31.0136 31.0143 35.085 26.068 35.085H15.3185C10.3721 35.085 6.40625 31.0136 6.40625 26.0708V15.3286C6.40625 10.3861 10.3721 6.38496 15.3185 6.38496H26.068C31.0143 6.38496 35.1063 10.3861 35.1063 15.3286V26.0708Z" fill="white"/>
</g>
<defs>
<clipPath id="clip0_45_193">
<rect width="41" height="41" fill="white" transform="translate(0 0.491211)"/>
</clipPath>
</defs>
</svg>
