<svg width="39" height="42" viewBox="0 0 39 42" fill="none" xmlns="http://www.w3.org/2000/svg">
<path d="M33.3383 0H5.43089C2.54098 0 0.198242 2.51445 0.198242 5.61618V35.5691C0.198242 38.6709 2.54098 41.1853 5.43089 41.1853H33.3383C36.2282 41.1853 38.571 38.6709 38.571 35.5691V5.61618C38.571 2.51445 36.2282 0 33.3383 0Z" fill="white"/>
<path d="M14.0218 11.2318C14.0218 11.926 13.83 12.6047 13.4706 13.1819C13.1112 13.7591 12.6005 14.209 12.0029 14.4747C11.4053 14.7404 10.7477 14.8099 10.1133 14.6745C9.47894 14.539 8.89621 14.2047 8.43884 13.7138C7.98146 13.2229 7.66999 12.5975 7.5438 11.9166C7.41761 11.2357 7.48237 10.5299 7.7299 9.88853C7.97743 9.24714 8.39661 8.69894 8.93442 8.31324C9.47224 7.92754 10.1045 7.72168 10.7514 7.72168C11.6187 7.72168 12.4506 8.09149 13.0639 8.74977C13.6772 9.40804 14.0218 10.3009 14.0218 11.2318Z" fill="#F10009"/>
<path d="M13.2803 17.0819V32.5896C13.2809 32.704 13.2604 32.8174 13.22 32.9233C13.1796 33.0291 13.1201 33.1254 13.045 33.2065C12.9698 33.2876 12.8804 33.352 12.782 33.3959C12.6836 33.4398 12.578 33.4625 12.4714 33.4625H9.02444C8.91785 33.4628 8.81226 33.4405 8.71372 33.3968C8.61519 33.3532 8.52567 33.2891 8.45029 33.2082C8.37492 33.1273 8.31519 33.0312 8.27453 32.9254C8.23388 32.8197 8.21309 32.7064 8.21338 32.5919V17.0819C8.21338 16.8511 8.29883 16.6296 8.45094 16.4664C8.60304 16.3031 8.80934 16.2114 9.02444 16.2114H12.4714C12.6862 16.212 12.8919 16.304 13.0435 16.4672C13.1952 16.6304 13.2803 16.8515 13.2803 17.0819Z" fill="#F10009"/>
<path d="M31.2985 25.1553V32.6622C31.2988 32.7674 31.2797 32.8716 31.2423 32.9689C31.2049 33.0661 31.15 33.1544 31.0807 33.2288C31.0114 33.3032 30.9291 33.3621 30.8385 33.4022C30.7479 33.4424 30.6508 33.4628 30.5528 33.4625H26.8464C26.7484 33.4628 26.6513 33.4424 26.5607 33.4022C26.4701 33.3621 26.3878 33.3032 26.3185 33.2288C26.2492 33.1544 26.1943 33.0661 26.1569 32.9689C26.1195 32.8716 26.1004 32.7674 26.1007 32.6622V25.3869C26.1007 24.3011 26.3972 20.6319 23.4561 20.6319C21.1777 20.6319 20.7133 23.1428 20.6217 24.2707V32.6622C20.6217 32.8725 20.5447 33.0743 20.4072 33.224C20.2697 33.3738 20.0828 33.4595 19.887 33.4625H16.307C16.2091 33.4625 16.1123 33.4418 16.0219 33.4016C15.9316 33.3613 15.8495 33.3023 15.7805 33.228C15.7114 33.1536 15.6567 33.0654 15.6194 32.9683C15.5822 32.8712 15.5632 32.7672 15.5635 32.6622V17.0142C15.5632 16.9092 15.5822 16.8052 15.6194 16.7081C15.6567 16.611 15.7114 16.5227 15.7805 16.4484C15.8495 16.374 15.9316 16.3151 16.0219 16.2748C16.1123 16.2346 16.2091 16.2138 16.307 16.2138H19.887C20.0847 16.2138 20.2744 16.2982 20.4142 16.4483C20.554 16.5983 20.6326 16.8019 20.6326 17.0142V18.3667C21.4785 17.0048 22.7322 15.9541 25.4074 15.9541C31.3334 15.9541 31.2985 21.8932 31.2985 25.1553Z" fill="#F10009"/>
</svg>
