<svg width="37" height="40" viewBox="0 0 37 40" fill="none" xmlns="http://www.w3.org/2000/svg">
<g clip-path="url(#clip0_45_199)">
<path fill-rule="evenodd" clip-rule="evenodd" d="M32.4795 0C34.9745 0 37 2.18984 37 4.88703V35.113C37 37.8102 34.9744 40 32.4795 40H4.5205C2.02561 40 0 37.8102 0 35.113V4.88703C0 2.18984 2.02553 0 4.5205 0H32.4795V0ZM30.9643 13.7211C30.6652 12.511 29.7837 11.558 28.6644 11.2347C26.6353 10.6469 18.5 10.6469 18.5 10.6469C18.5 10.6469 10.3647 10.6469 8.33562 11.2347C7.21652 11.558 6.33488 12.511 6.0357 13.7211C5.49219 15.9145 5.49219 20.4908 5.49219 20.4908C5.49219 20.4908 5.49219 25.067 6.0357 27.2602C6.33488 28.4702 7.21652 29.4234 8.33562 29.7468C10.3647 30.3344 18.5 30.3344 18.5 30.3344C18.5 30.3344 26.6353 30.3344 28.6644 29.7468C29.7837 29.4234 30.6652 28.4702 30.9643 27.2602C31.5078 25.067 31.5078 20.4908 31.5078 20.4908C31.5078 20.4908 31.5078 15.9145 30.9643 13.7211ZM15.8983 24.7096V16.272L22.6573 20.4908L15.8983 24.7096Z" fill="white"/>
</g>
<defs>
<clipPath id="clip0_45_199">
<rect width="37" height="40" fill="white"/>
</clipPath>
</defs>
</svg>
