<svg width="154" height="65" viewBox="0 0 154 65" fill="none" xmlns="http://www.w3.org/2000/svg">
<path d="M3.3609 23.6733C2.44281 23.6733 1.73239 23.6952 1.22963 23.7389C1.16406 23.7389 1.10941 23.7171 1.06569 23.6733C1.02197 23.6078 1.01104 23.5531 1.0329 23.5094C1.07662 23.4657 1.1422 23.4438 1.22963 23.4438C1.71053 23.422 2.12586 23.2799 2.4756 23.0176C2.84721 22.7334 3.13138 22.2853 3.32811 21.6732C3.5467 21.0393 3.65599 20.2305 3.65599 19.2469V5.14775C3.65599 4.16409 3.5467 3.35531 3.32811 2.72139C3.13138 2.08748 2.84721 1.63937 2.4756 1.37706C2.12586 1.09289 1.72146 0.939878 1.26242 0.918019C1.15313 0.918019 1.08755 0.896159 1.06569 0.85244C1.04383 0.808723 1.04383 0.765005 1.06569 0.721286C1.10941 0.655709 1.17499 0.622921 1.26242 0.622921C1.72146 0.666639 2.1805 0.688497 2.63955 0.688497C2.88 0.688497 3.13138 0.699427 3.39368 0.721286C4.20247 0.721286 5.4703 0.688497 7.19717 0.622921C9.60167 0.535484 11.3285 0.491766 12.3778 0.491766C14.4325 0.491766 16.1266 0.732216 17.46 1.21311C18.7934 1.69402 19.7661 2.32793 20.3782 3.11486C20.9903 3.90179 21.2963 4.76522 21.2963 5.70516C21.2963 7.27902 20.7935 8.52498 19.788 9.44307C18.7825 10.3393 17.2851 10.8967 15.296 11.1153C17.7442 11.2464 19.6678 11.8038 21.0668 12.7875C22.4657 13.7712 23.1652 15.192 23.1652 17.05C23.1652 18.5365 22.7608 19.7824 21.9521 20.7879C21.1433 21.7935 19.941 22.5695 18.3453 23.1159C16.7715 23.6406 14.8369 23.9029 12.5417 23.9029C11.2957 23.9029 9.51423 23.8591 7.19717 23.7717C5.51402 23.7061 4.23526 23.6733 3.3609 23.6733ZM11.263 10.9841C12.0717 10.8967 12.7384 10.6781 13.2631 10.3284C13.8095 9.97861 14.2139 9.46493 14.4762 8.78729C14.7604 8.10966 14.9025 7.2353 14.9025 6.1642C14.9025 4.98381 14.7167 4.00015 14.3451 3.21322C13.9735 2.4263 13.5035 1.8361 12.9352 1.44264C12.3668 1.04917 11.7439 0.85244 11.0662 0.85244L10.1154 0.786864C9.85305 0.786864 9.67818 0.852441 9.59074 0.983595C9.52516 1.09289 9.49237 1.32241 9.49237 1.67216V22.1651C9.49237 22.7334 9.56888 23.1159 9.72189 23.3127C9.87491 23.5094 10.2028 23.6078 10.7056 23.6078H11.722C12.5745 23.6078 13.3505 23.4001 14.05 22.9848C14.7495 22.5476 15.296 21.8918 15.6894 21.0175C16.0829 20.1431 16.2796 19.072 16.2796 17.8042C16.2796 15.7276 15.8971 14.1318 15.132 13.017C14.367 11.9022 13.0991 11.3339 11.3285 11.312L10.3777 11.2792C10.2902 11.2792 10.2247 11.2683 10.1809 11.2464C10.1591 11.2027 10.1591 11.159 10.1809 11.1153C10.2247 11.0716 10.2793 11.0497 10.3449 11.0497L11.263 10.9841ZM37.2118 24.2635C34.8729 24.2635 32.7854 23.7717 30.9492 22.788C29.1349 21.7825 27.7141 20.3945 26.6867 18.6239C25.6812 16.8533 25.1784 14.8532 25.1784 12.6236C25.1784 10.3065 25.7577 8.20803 26.9162 6.32814C28.0966 4.4264 29.7032 2.92905 31.7361 1.8361C33.769 0.721287 36.0642 0.16388 38.6218 0.16388C41.0044 0.16388 43.1247 0.666639 44.9828 1.67216C46.8626 2.65582 48.3272 4.03294 49.3764 5.80353C50.4257 7.55225 50.9503 9.54143 50.9503 11.7711C50.9503 14.0663 50.3492 16.1757 49.1469 18.0993C47.9665 20.001 46.3271 21.5093 44.2286 22.6241C42.152 23.7171 39.8131 24.2635 37.2118 24.2635ZM41.1465 23.1159C42.0864 23.1159 42.8952 22.9301 43.5728 22.5585C44.2505 22.1651 44.7642 21.6077 45.1139 20.8863C45.4855 20.1431 45.6713 19.2469 45.6713 18.1976C45.6713 15.7713 45.1467 13.2356 44.0975 10.5907C43.0482 7.92386 41.682 5.70516 39.9989 3.93457C38.3157 2.14213 36.5889 1.24591 34.8183 1.24591C33.922 1.24591 33.1461 1.43171 32.4903 1.80331C31.8345 2.17492 31.3208 2.72139 30.9492 3.44274C30.5995 4.14223 30.4246 5.0166 30.4246 6.06584C30.4246 8.47034 30.9383 11.0169 31.9657 13.7056C33.0149 16.3943 34.3702 18.6348 36.0315 20.4273C37.6927 22.2197 39.3978 23.1159 41.1465 23.1159ZM66.0054 23.6733C65.6775 23.6952 65.3606 23.7061 65.0545 23.7061C64.4862 23.7061 63.9069 23.728 63.3167 23.7717C63.1856 23.7717 63.0981 23.7389 63.0544 23.6733C63.0107 23.6296 62.9998 23.5859 63.0216 23.5422C63.0654 23.4985 63.1528 23.4766 63.2839 23.4766C63.8741 23.4547 64.3769 23.3127 64.7922 23.0504C65.2294 22.7662 65.5026 22.329 65.6119 21.7388C65.7431 21.1268 65.6229 20.3726 65.2513 19.4764L57.8738 1.47542C57.8301 1.36613 57.7755 1.26776 57.7099 1.18033C57.6443 1.09289 57.5569 1.02731 57.4476 0.983595C57.4038 0.961736 57.3601 0.950807 57.3164 0.950807C57.2727 0.928948 57.218 0.918019 57.1525 0.918019C57.1087 0.918019 57.076 0.907089 57.0541 0.885229C57.0322 0.841511 57.0322 0.808723 57.0541 0.786864C57.0978 0.743145 57.1525 0.721286 57.218 0.721286H63.2184C63.3277 0.721286 63.426 0.732215 63.5135 0.754074C63.6009 0.775934 63.6774 0.819652 63.743 0.885229C63.8304 0.950806 63.896 1.03824 63.9397 1.14754L71.4155 19.4764C71.7216 20.2415 71.9948 20.8863 72.2352 21.4109C72.4976 21.9137 72.7489 22.3181 72.9894 22.6241C73.1861 22.9083 73.3828 23.1269 73.5796 23.2799C73.7982 23.411 74.0168 23.4766 74.2354 23.4766C74.3009 23.4766 74.3446 23.4985 74.3665 23.5422C74.4102 23.5859 74.4102 23.6296 74.3665 23.6733C74.3446 23.7389 74.3009 23.7717 74.2354 23.7717C73.9075 23.728 73.5686 23.7061 73.2189 23.7061C73.0659 23.7061 72.891 23.6952 72.6943 23.6733H66.0054ZM51.7096 23.6733C51.5347 23.6952 51.3489 23.7061 51.1521 23.7061C50.8461 23.7061 50.5292 23.728 50.2013 23.7717C50.1357 23.7717 50.081 23.7389 50.0373 23.6733C50.0155 23.6296 50.0155 23.5859 50.0373 23.5422C50.081 23.4985 50.1357 23.4766 50.2013 23.4766C50.398 23.4766 50.5947 23.411 50.7915 23.2799C51.0101 23.1487 51.2177 22.9411 51.4145 22.6569C51.6549 22.329 51.8954 21.9137 52.1358 21.4109C52.3981 20.8863 52.6823 20.2415 52.9883 19.4764L58.7263 5.37727C58.8575 5.00567 58.9012 4.63406 58.8575 4.26246C58.8138 3.869 58.7154 3.50832 58.5624 3.18044L59.546 4.09852L53.2834 19.4764C52.9118 20.3726 52.7916 21.1268 52.9227 21.7388C53.0539 22.329 53.3381 22.7662 53.7752 23.0504C54.2343 23.3127 54.7808 23.4547 55.4147 23.4766C55.5458 23.4766 55.6333 23.4985 55.677 23.5422C55.7207 23.5859 55.7098 23.6296 55.6442 23.6733C55.6005 23.7389 55.524 23.7717 55.4147 23.7717C54.8026 23.728 54.1796 23.7061 53.5457 23.7061C53.2397 23.7061 52.9009 23.6952 52.5293 23.6733H51.7096ZM53.4146 19.1813C53.3708 18.8315 53.4036 18.5474 53.5129 18.3288C53.6222 18.1102 53.7752 17.9353 53.972 17.8042C53.9282 17.979 53.9282 18.1102 53.972 18.1976C54.0157 18.2851 54.1141 18.3288 54.2671 18.3288C55.7972 18.2414 57.3492 18.0228 58.9231 17.673C60.5188 17.3233 61.9287 16.8533 63.1528 16.2631C63.3277 16.1757 63.4588 16.0554 63.5463 15.9024C63.6337 15.7494 63.6446 15.6183 63.579 15.509C63.6446 15.509 63.7211 15.5745 63.8086 15.7057C63.9179 15.815 63.9944 15.968 64.0381 16.1647C64.1037 16.3396 64.1364 16.5254 64.1364 16.7221C64.0053 16.591 63.8741 16.5145 63.743 16.4926C63.6118 16.4708 63.4588 16.4926 63.2839 16.5582C62.2347 17.0172 61.0215 17.4216 59.6444 17.7714C58.7482 18.0118 57.841 18.2086 56.9229 18.3616C56.0049 18.4927 55.1086 18.5802 54.2343 18.6239C54.0375 18.6239 53.8627 18.6785 53.7097 18.7878C53.5785 18.8753 53.4801 19.0064 53.4146 19.1813ZM85.0861 12.6891C84.9768 12.6891 84.9221 12.6564 84.9221 12.5908C84.9221 12.5252 84.9877 12.4815 85.1189 12.4596L85.8402 12.4268C86.955 12.2957 87.8403 11.9787 88.4961 11.476C89.1737 10.9732 89.6546 10.2956 89.9388 9.44307C90.2448 8.5687 90.3978 7.48668 90.3978 6.19699C90.3978 4.97288 90.212 3.96736 89.8404 3.18044C89.4688 2.37165 88.9442 1.78145 88.2666 1.40985C87.589 1.01638 86.7911 0.819652 85.873 0.819652L85.0861 0.786864C84.6708 0.765004 84.3757 0.85244 84.2008 1.04917C84.0478 1.22404 83.9713 1.56286 83.9713 2.06562V19.2469C83.9713 20.2305 84.0696 21.0393 84.2664 21.6732C84.485 22.3071 84.7691 22.7662 85.1189 23.0504C85.4905 23.3127 85.9058 23.4547 86.3648 23.4766C86.4523 23.4766 86.5069 23.4985 86.5288 23.5422C86.5725 23.5859 86.5725 23.6296 86.5288 23.6733C86.4851 23.7389 86.4304 23.7717 86.3648 23.7717C85.8839 23.728 85.4249 23.7061 84.9877 23.7061C84.7691 23.7061 84.5177 23.6952 84.2336 23.6733H77.8726C77.5884 23.6952 77.337 23.7061 77.1184 23.7061C76.6594 23.7061 76.2004 23.728 75.7413 23.7717C75.6539 23.7717 75.5883 23.7389 75.5446 23.6733C75.5227 23.6296 75.5227 23.5859 75.5446 23.5422C75.5664 23.4985 75.632 23.4766 75.7413 23.4766C76.2004 23.4547 76.6048 23.3127 76.9545 23.0504C77.3261 22.7662 77.6103 22.3071 77.807 21.6732C78.0256 21.0393 78.1349 20.2305 78.1349 19.2469V5.14775C78.1349 4.16409 78.0256 3.36624 77.807 2.75418C77.6103 2.12027 77.3261 1.67216 76.9545 1.40985C76.6048 1.12568 76.1894 0.972666 75.7085 0.950807C75.6211 0.950807 75.5555 0.928948 75.5118 0.885229C75.4899 0.841511 75.5009 0.797793 75.5446 0.754074C75.5883 0.688497 75.643 0.655709 75.7085 0.655709C76.2113 0.699427 76.9217 0.721286 77.8398 0.721286C78.8016 0.721286 79.9711 0.688497 81.3482 0.622921C83.5341 0.535484 85.3703 0.491766 86.8567 0.491766C90.3323 0.491766 92.8898 0.994525 94.5292 2.00004C96.1686 2.9837 96.9884 4.55756 96.9884 6.72161C96.9884 7.902 96.6495 8.91845 95.9719 9.77095C95.3161 10.6235 94.3216 11.3011 92.9881 11.8038C91.6766 12.3066 90.0372 12.6236 88.0699 12.7547V12.9187L85.0861 12.6891ZM86.2665 12.5908C87.272 12.7438 88.3103 12.8422 89.3814 12.8859C90.4744 12.9077 91.5454 12.8531 92.5947 12.7219C92.704 12.7001 92.8023 12.7329 92.8898 12.8203C92.9991 12.8859 93.0756 12.9842 93.1193 13.1154C93.7969 15.9571 94.7259 18.5146 95.9063 20.7879C97.1086 23.0394 98.4529 24.5477 99.9393 25.3128L100.234 25.4439C100.366 25.4876 100.409 25.5423 100.366 25.6079C100.344 25.6953 100.278 25.7172 100.169 25.6734C97.8299 25.0833 95.8845 24.3182 94.3325 23.3782C92.7805 22.4164 91.3596 21.094 90.07 19.4108C88.8021 17.7058 87.5343 15.4325 86.2665 12.5908ZM110.513 23.9356C109.31 23.9356 107.693 23.8919 105.66 23.8045C103.846 23.7171 102.556 23.6733 101.791 23.6733L101.037 23.7061C100.6 23.7061 100.141 23.728 99.6596 23.7717C99.594 23.7717 99.5394 23.7389 99.4957 23.6733C99.452 23.6296 99.441 23.5859 99.4629 23.5422C99.5066 23.4985 99.5722 23.4766 99.6596 23.4766C100.141 23.4547 100.556 23.3127 100.906 23.0504C101.255 22.7662 101.529 22.3181 101.725 21.706C101.944 21.0721 102.053 20.2633 102.053 19.2797V5.11496C102.053 4.15316 101.944 3.35531 101.725 2.72139C101.529 2.08748 101.255 1.63937 100.906 1.37706C100.556 1.09289 100.141 0.939878 99.6596 0.918019C99.5722 0.918019 99.5066 0.896159 99.4629 0.85244C99.441 0.808723 99.452 0.765005 99.4957 0.721286C99.5394 0.655709 99.594 0.622921 99.6596 0.622921C100.141 0.666639 100.6 0.688497 101.037 0.688497L101.791 0.721286C102.337 0.721286 103.583 0.688497 105.529 0.622921C107.518 0.535484 108.95 0.491766 109.824 0.491766C112.95 0.491766 115.497 1.02731 117.464 2.09841C119.453 3.14765 120.885 4.54663 121.759 6.29536C122.655 8.04408 123.104 9.96769 123.104 12.0662C123.104 14.2958 122.579 16.3178 121.53 18.1321C120.502 19.9245 119.038 21.3453 117.136 22.3946C115.234 23.422 113.026 23.9356 110.513 23.9356ZM109.529 23.6406C111.19 23.6406 112.556 23.1597 113.628 22.1979C114.721 21.2361 115.529 19.9573 116.054 18.3616C116.6 16.744 116.885 14.9516 116.906 12.9842C116.906 10.8639 116.611 8.87473 116.021 7.01671C115.453 5.15868 114.557 3.66133 113.332 2.52466C112.108 1.36613 110.6 0.786864 108.808 0.786864C108.48 0.786864 108.239 0.896159 108.086 1.11475C107.955 1.33334 107.89 1.6503 107.89 2.06562V22.2306C107.89 22.6022 107.944 22.8864 108.054 23.0831C108.163 23.2799 108.327 23.422 108.545 23.5094C108.786 23.5968 109.114 23.6406 109.529 23.6406ZM26.9031 58.2797C27.0124 59.2633 27.1982 60.0721 27.4606 60.706C27.7447 61.3181 28.0617 61.7662 28.4114 62.0504C28.783 62.3127 29.1984 62.4547 29.6574 62.4766C29.7667 62.4766 29.8323 62.4985 29.8541 62.5422C29.876 62.5859 29.8651 62.6296 29.8213 62.6733C29.7776 62.7389 29.723 62.7717 29.6574 62.7717C29.1765 62.728 28.7175 62.7061 28.2803 62.7061C28.0398 62.7061 27.7884 62.6952 27.5261 62.6733H21.034C20.6405 62.6952 20.2689 62.7061 19.9192 62.7061C19.2852 62.7061 18.6185 62.728 17.9191 62.7717C17.8098 62.7717 17.7223 62.7389 17.6567 62.6733C17.613 62.6296 17.613 62.5859 17.6567 62.5422C17.7005 62.4985 17.7879 62.4766 17.9191 62.4766C18.5748 62.4547 19.1541 62.3127 19.6569 62.0504C20.1596 61.7662 20.5421 61.3181 20.8045 60.706C21.0668 60.0721 21.1323 59.2633 21.0012 58.2797L19.3618 44.0166C19.3399 43.8636 19.2743 43.7871 19.165 43.7871C19.0776 43.7871 19.0011 43.8636 18.9355 44.0166L12.5417 61.2634C12.5199 61.3727 12.4871 61.4492 12.4434 61.4929C12.3996 61.5367 12.345 61.5585 12.2794 61.5585C12.1701 61.5585 12.0717 61.4711 11.9843 61.2962L5.39379 44.115C5.35007 43.9838 5.27357 43.9182 5.16427 43.9182C5.05498 43.9182 4.9894 43.9947 4.96754 44.1478L3.52484 58.2797C3.41554 59.2633 3.49205 60.0721 3.75436 60.706C4.01667 61.3181 4.3992 61.7662 4.90196 62.0504C5.42658 62.3127 6.00585 62.4547 6.63976 62.4766C6.79277 62.4766 6.89114 62.4985 6.93486 62.5422C6.97858 62.5859 6.96765 62.6296 6.90207 62.6733C6.85835 62.7389 6.77092 62.7717 6.63976 62.7717C5.96213 62.728 5.29543 62.7061 4.63965 62.7061C4.31177 62.7061 3.95109 62.6952 3.55763 62.6733H2.57397C2.31166 62.6952 2.06028 62.7061 1.81983 62.7061C1.38265 62.7061 0.934536 62.728 0.475495 62.7717C0.388059 62.7717 0.322481 62.7389 0.278763 62.6733C0.256904 62.6296 0.256904 62.5859 0.278763 62.5422C0.300622 62.4985 0.3662 62.4766 0.475495 62.4766C0.934536 62.4547 1.33893 62.3127 1.68868 62.0504C2.06028 61.7662 2.37724 61.3181 2.63955 60.706C2.90185 60.0721 3.08766 59.2633 3.19695 58.2797L4.83639 42.8362L5.29543 43.8854C4.9894 43.1422 4.68337 42.5192 4.37734 42.0165C4.09318 41.5137 3.80901 41.0984 3.52484 40.7705C3.26253 40.4864 2.98929 40.2787 2.70512 40.1475C2.42095 39.9945 2.11493 39.918 1.78704 39.918C1.67775 39.918 1.61217 39.8962 1.59031 39.8524C1.56845 39.8087 1.56845 39.765 1.59031 39.7213C1.63403 39.6557 1.6996 39.6229 1.78704 39.6229C2.26794 39.6666 2.72698 39.6885 3.16416 39.6885C3.38276 39.6885 3.63413 39.6994 3.9183 39.7213H9.03333C9.23006 39.7213 9.39401 39.765 9.52516 39.8524C9.67818 39.918 9.77654 40.0382 9.82026 40.2131L14.7386 53.0663C14.7823 53.1756 14.826 53.2302 14.8697 53.2302C14.9353 53.2302 14.9899 53.1756 15.0337 53.0663L20.0831 40.0492C20.105 39.9399 20.1487 39.8634 20.2143 39.8197C20.3017 39.7541 20.3782 39.7213 20.4438 39.7213H25.1653C25.4277 39.6994 25.69 39.6885 25.9523 39.6885C26.455 39.6885 26.9578 39.6666 27.4606 39.6229C27.5698 39.6229 27.6354 39.6557 27.6573 39.7213C27.701 39.765 27.701 39.8087 27.6573 39.8524C27.6354 39.8962 27.5698 39.918 27.4606 39.918C26.9797 39.9399 26.5425 40.0929 26.149 40.3771C25.7774 40.6394 25.5042 41.0875 25.3293 41.7214C25.1763 42.3334 25.1544 43.1313 25.2637 44.115L26.9031 58.2797ZM33.3318 62.6733C33.0695 62.6952 32.8181 62.7061 32.5776 62.7061C32.1404 62.7061 31.6814 62.728 31.2005 62.7717C31.1349 62.7717 31.0803 62.7389 31.0366 62.6733C30.9928 62.6296 30.9819 62.5859 31.0038 62.5422C31.0475 62.4985 31.1131 62.4766 31.2005 62.4766C31.6814 62.4547 32.0967 62.3127 32.4465 62.0504C32.7962 61.7662 33.0695 61.3071 33.2662 60.6732C33.4848 60.0393 33.5941 59.2305 33.5941 58.2469V44.1478C33.5941 43.1641 33.4848 42.3553 33.2662 41.7214C33.0695 41.0875 32.7962 40.6394 32.4465 40.3771C32.0967 40.0929 31.6814 39.9399 31.2005 39.918C31.1131 39.918 31.0475 39.8962 31.0038 39.8524C30.9819 39.8087 30.9928 39.765 31.0366 39.7213C31.0803 39.6557 31.1349 39.6229 31.2005 39.6229C31.6814 39.6666 32.1404 39.6885 32.5776 39.6885C32.8181 39.6885 33.0695 39.6994 33.3318 39.7213H43.1028C44.7859 39.7213 46.4144 39.6011 47.9883 39.3606C48.6222 39.295 49.0047 39.2622 49.1359 39.2622C49.3763 39.2622 49.5512 39.3278 49.6605 39.459C49.7917 39.5683 49.8682 39.7978 49.89 40.1475C49.9993 42.7488 50.2398 45.7216 50.6114 49.0661C50.6332 49.1535 50.6114 49.2081 50.5458 49.23C50.5021 49.2519 50.4584 49.2191 50.4147 49.1316C49.9775 47.8638 49.5731 46.8255 49.2015 46.0167C48.8299 45.1861 48.4801 44.4975 48.1522 43.951C47.8243 43.4045 47.4637 42.9236 47.0702 42.5083C46.48 41.8525 45.8461 41.3389 45.1685 40.9673C44.4908 40.5956 43.7695 40.3443 43.0044 40.2131C42.2393 40.082 41.3978 40.0164 40.4797 40.0164C40.1081 40.0164 39.8348 40.1475 39.66 40.4098C39.507 40.6722 39.4305 41.011 39.4305 41.4263V49.3939C39.4305 49.6562 39.4742 49.8858 39.5616 50.0825C39.6709 50.2792 39.8567 50.3776 40.119 50.3776C40.9934 50.3776 41.6054 50.3557 41.9552 50.312C42.4142 50.2464 42.8186 50.0825 43.1684 49.8202C43.54 49.5579 43.8897 49.1535 44.2176 48.607C44.5455 48.0387 44.8515 47.2955 45.1357 46.3774C45.1794 46.2462 45.234 46.1806 45.2996 46.1806C45.3871 46.1806 45.4198 46.2462 45.398 46.3774C45.2231 47.4703 45.1575 48.9021 45.2013 50.6727C45.245 52.4433 45.3652 53.8969 45.5619 55.0336C45.5838 55.1429 45.551 55.2085 45.4636 55.2303C45.398 55.2303 45.3433 55.1647 45.2996 55.0336C44.9936 54.0936 44.6548 53.3176 44.2832 52.7056C43.9334 52.0935 43.5618 51.6345 43.1684 51.3285C42.7968 51.0006 42.3924 50.8038 41.9552 50.7383C41.518 50.6946 40.9059 50.6727 40.119 50.6727C39.8567 50.6727 39.6709 50.7711 39.5616 50.9678C39.4742 51.1645 39.4305 51.394 39.4305 51.6564V60.4437C39.4305 60.9028 39.4632 61.2744 39.5288 61.5585C39.6163 61.8427 39.7365 62.0504 39.8895 62.1815C40.0644 62.3127 40.2939 62.3782 40.5781 62.3782C42.0426 62.3782 43.4197 62.1487 44.7094 61.6897C45.9991 61.2306 47.0921 60.553 47.9883 59.6568C48.4473 59.2196 48.8627 58.7168 49.2343 58.1485C49.6277 57.5583 49.9775 56.8807 50.2835 56.1156C50.6114 55.3505 50.9065 54.4652 51.1688 53.4597C51.2125 53.3504 51.2562 53.2849 51.2999 53.263C51.3437 53.2411 51.3765 53.263 51.3983 53.3286C51.4202 53.3723 51.4202 53.4269 51.3983 53.4925C51.1579 55.0445 50.983 56.5637 50.8737 58.0501C50.7863 59.5147 50.7316 60.9137 50.7098 62.2471C50.7098 62.575 50.6442 62.8045 50.513 62.9356C50.4037 63.0668 50.2289 63.1324 49.9884 63.1324C49.7261 63.1542 49.3326 63.1215 48.808 63.034C47.103 62.7936 45.3324 62.6733 43.4962 62.6733H33.3318ZM78.7438 58.2797C78.8531 59.2633 79.0389 60.0721 79.3012 60.706C79.5854 61.3181 79.9023 61.7662 80.2521 62.0504C80.6237 62.3127 81.039 62.4547 81.498 62.4766C81.6073 62.4766 81.6729 62.4985 81.6948 62.5422C81.7166 62.5859 81.7057 62.6296 81.662 62.6733C81.6183 62.7389 81.5636 62.7717 81.498 62.7717C81.0171 62.728 80.5581 62.7061 80.1209 62.7061C79.8805 62.7061 79.6291 62.6952 79.3668 62.6733H72.8746C72.4812 62.6952 72.1096 62.7061 71.7598 62.7061C71.1259 62.7061 70.4592 62.728 69.7597 62.7717C69.6504 62.7717 69.563 62.7389 69.4974 62.6733C69.4537 62.6296 69.4537 62.5859 69.4974 62.5422C69.5411 62.4985 69.6285 62.4766 69.7597 62.4766C70.4155 62.4547 70.9947 62.3127 71.4975 62.0504C72.0003 61.7662 72.3828 61.3181 72.6451 60.706C72.9074 60.0721 72.973 59.2633 72.8418 58.2797L71.2024 44.0166C71.1805 43.8636 71.115 43.7871 71.0057 43.7871C70.9182 43.7871 70.8417 43.8636 70.7761 44.0166L64.3824 61.2634C64.3605 61.3727 64.3277 61.4492 64.284 61.4929C64.2403 61.5367 64.1856 61.5585 64.1201 61.5585C64.0108 61.5585 63.9124 61.4711 63.825 61.2962L57.2344 44.115C57.1907 43.9838 57.1142 43.9182 57.0049 43.9182C56.8956 43.9182 56.83 43.9947 56.8082 44.1478L55.3655 58.2797C55.2562 59.2633 55.3327 60.0721 55.595 60.706C55.8573 61.3181 56.2398 61.7662 56.7426 62.0504C57.2672 62.3127 57.8465 62.4547 58.4804 62.4766C58.6334 62.4766 58.7318 62.4985 58.7755 62.5422C58.8192 62.5859 58.8083 62.6296 58.7427 62.6733C58.699 62.7389 58.6116 62.7717 58.4804 62.7717C57.8028 62.728 57.1361 62.7061 56.4803 62.7061C56.1524 62.7061 55.7917 62.6952 55.3983 62.6733H54.4146C54.1523 62.6952 53.9009 62.7061 53.6605 62.7061C53.2233 62.7061 52.7752 62.728 52.3161 62.7717C52.2287 62.7717 52.1631 62.7389 52.1194 62.6733C52.0975 62.6296 52.0975 62.5859 52.1194 62.5422C52.1413 62.4985 52.2068 62.4766 52.3161 62.4766C52.7752 62.4547 53.1796 62.3127 53.5293 62.0504C53.9009 61.7662 54.2179 61.3181 54.4802 60.706C54.7425 60.0721 54.9283 59.2633 55.0376 58.2797L56.677 42.8362L57.1361 43.8854C56.83 43.1422 56.524 42.5192 56.218 42.0165C55.9338 41.5137 55.6497 41.0984 55.3655 40.7705C55.1032 40.4864 54.8299 40.2787 54.5458 40.1475C54.2616 39.9945 53.9556 39.918 53.6277 39.918C53.5184 39.918 53.4528 39.8962 53.431 39.8524C53.4091 39.8087 53.4091 39.765 53.431 39.7213C53.4747 39.6557 53.5402 39.6229 53.6277 39.6229C54.1086 39.6666 54.5676 39.6885 55.0048 39.6885C55.2234 39.6885 55.4748 39.6994 55.7589 39.7213H60.874C61.0707 39.7213 61.2347 39.765 61.3658 39.8524C61.5188 39.918 61.6172 40.0382 61.6609 40.2131L66.5792 53.0663C66.6229 53.1756 66.6666 53.2302 66.7104 53.2302C66.7759 53.2302 66.8306 53.1756 66.8743 53.0663L71.9238 40.0492C71.9456 39.9399 71.9893 39.8634 72.0549 39.8197C72.1423 39.7541 72.2188 39.7213 72.2844 39.7213H77.006C77.2683 39.6994 77.5306 39.6885 77.7929 39.6885C78.2957 39.6885 78.7984 39.6666 79.3012 39.6229C79.4105 39.6229 79.4761 39.6557 79.4979 39.7213C79.5416 39.765 79.5416 39.8087 79.4979 39.8524C79.4761 39.8962 79.4105 39.918 79.3012 39.918C78.8203 39.9399 78.3831 40.0929 77.9897 40.3771C77.618 40.6394 77.3448 41.0875 77.1699 41.7214C77.0169 42.3334 76.9951 43.1313 77.1044 44.115L78.7438 58.2797ZM85.1724 62.6733C84.2543 62.6733 83.5439 62.6952 83.0411 62.7389C82.9756 62.7389 82.9209 62.7171 82.8772 62.6733C82.8335 62.6078 82.8226 62.5531 82.8444 62.5094C82.8881 62.4657 82.9537 62.4438 83.0411 62.4438C83.522 62.422 83.9374 62.2799 84.2871 62.0176C84.6587 61.7334 84.9429 61.2853 85.1396 60.6732C85.3582 60.0393 85.4675 59.2305 85.4675 58.2469V44.1478C85.4675 43.1641 85.3582 42.3553 85.1396 41.7214C84.9429 41.0875 84.6587 40.6394 84.2871 40.3771C83.9374 40.0929 83.533 39.9399 83.0739 39.918C82.9646 39.918 82.8991 39.8962 82.8772 39.8524C82.8553 39.8087 82.8553 39.765 82.8772 39.7213C82.9209 39.6557 82.9865 39.6229 83.0739 39.6229C83.533 39.6666 83.992 39.6885 84.4511 39.6885C84.6915 39.6885 84.9429 39.6994 85.2052 39.7213C86.014 39.7213 87.2818 39.6885 89.0087 39.6229C91.4132 39.5355 93.1401 39.4918 94.1893 39.4918C96.244 39.4918 97.9381 39.7322 99.2715 40.2131C100.605 40.694 101.578 41.3279 102.19 42.1149C102.802 42.9018 103.108 43.7652 103.108 44.7052C103.108 46.279 102.605 47.525 101.6 48.4431C100.594 49.3393 99.0967 49.8967 97.1075 50.1153C99.5557 50.2464 101.479 50.8038 102.878 51.7875C104.277 52.7712 104.977 54.192 104.977 56.05C104.977 57.5365 104.572 58.7824 103.764 59.7879C102.955 60.7935 101.753 61.5695 100.157 62.1159C98.583 62.6406 96.6484 62.9029 94.3532 62.9029C93.1073 62.9029 91.3257 62.8591 89.0087 62.7717C87.3255 62.7061 86.0468 62.6733 85.1724 62.6733ZM93.0745 49.9841C93.8833 49.8967 94.55 49.6781 95.0746 49.3284C95.6211 48.9786 96.0255 48.4649 96.2878 47.7873C96.5719 47.1097 96.714 46.2353 96.714 45.1642C96.714 43.9838 96.5282 43.0002 96.1566 42.2132C95.785 41.4263 95.315 40.8361 94.7467 40.4426C94.1784 40.0492 93.5554 39.8524 92.8777 39.8524L91.9269 39.7869C91.6646 39.7869 91.4897 39.8524 91.4023 39.9836C91.3367 40.0929 91.3039 40.3224 91.3039 40.6722V61.1651C91.3039 61.7334 91.3804 62.1159 91.5334 62.3127C91.6864 62.5094 92.0143 62.6078 92.5171 62.6078H93.5335C94.386 62.6078 95.162 62.4001 95.8615 61.9848C96.561 61.5476 97.1075 60.8918 97.5009 60.0175C97.8944 59.1431 98.0911 58.072 98.0911 56.8042C98.0911 54.7276 97.7086 53.1318 96.9435 52.017C96.1785 50.9022 94.9106 50.3339 93.1401 50.312L92.1892 50.2792C92.1017 50.2792 92.0362 50.2683 91.9925 50.2464C91.9706 50.2027 91.9706 50.159 91.9925 50.1153C92.0362 50.0716 92.0908 50.0497 92.1564 50.0497L93.0745 49.9841ZM109.22 62.6733C108.957 62.6952 108.706 62.7061 108.465 62.7061C108.028 62.7061 107.569 62.728 107.088 62.7717C107.023 62.7717 106.968 62.7389 106.924 62.6733C106.881 62.6296 106.87 62.5859 106.892 62.5422C106.935 62.4985 107.001 62.4766 107.088 62.4766C107.569 62.4547 107.985 62.3127 108.334 62.0504C108.684 61.7662 108.957 61.3071 109.154 60.6732C109.373 60.0393 109.482 59.2305 109.482 58.2469V44.1478C109.482 43.1641 109.373 42.3553 109.154 41.7214C108.957 41.0875 108.684 40.6394 108.334 40.3771C107.985 40.0929 107.569 39.9399 107.088 39.918C107.001 39.918 106.935 39.8962 106.892 39.8524C106.87 39.8087 106.881 39.765 106.924 39.7213C106.968 39.6557 107.023 39.6229 107.088 39.6229C107.569 39.6666 108.028 39.6885 108.465 39.6885C108.706 39.6885 108.957 39.6994 109.22 39.7213H118.991C120.674 39.7213 122.302 39.6011 123.876 39.3606C124.51 39.295 124.893 39.2622 125.024 39.2622C125.264 39.2622 125.439 39.3278 125.548 39.459C125.679 39.5683 125.756 39.7978 125.778 40.1475C125.887 42.7488 126.128 45.7216 126.499 49.0661C126.521 49.1535 126.499 49.2081 126.434 49.23C126.39 49.2519 126.346 49.2191 126.302 49.1316C125.865 47.8638 125.461 46.8255 125.089 46.0167C124.718 45.1861 124.368 44.4975 124.04 43.951C123.712 43.4045 123.351 42.9236 122.958 42.5083C122.368 41.8525 121.734 41.3389 121.056 40.9673C120.379 40.5956 119.657 40.3443 118.892 40.2131C118.127 40.082 117.286 40.0164 116.367 40.0164C115.996 40.0164 115.723 40.1475 115.548 40.4098C115.395 40.6722 115.318 41.011 115.318 41.4263V49.3939C115.318 49.6562 115.362 49.8858 115.449 50.0825C115.559 50.2792 115.744 50.3776 116.007 50.3776C116.881 50.3776 117.493 50.3557 117.843 50.312C118.302 50.2464 118.706 50.0825 119.056 49.8202C119.428 49.5579 119.777 49.1535 120.105 48.607C120.433 48.0387 120.739 47.2955 121.023 46.3774C121.067 46.2462 121.122 46.1806 121.187 46.1806C121.275 46.1806 121.308 46.2462 121.286 46.3774C121.111 47.4703 121.045 48.9021 121.089 50.6727C121.133 52.4433 121.253 53.8969 121.45 55.0336C121.472 55.1429 121.439 55.2085 121.351 55.2303C121.286 55.2303 121.231 55.1647 121.187 55.0336C120.881 54.0936 120.543 53.3176 120.171 52.7056C119.821 52.0935 119.45 51.6345 119.056 51.3285C118.685 51.0006 118.28 50.8038 117.843 50.7383C117.406 50.6946 116.794 50.6727 116.007 50.6727C115.744 50.6727 115.559 50.7711 115.449 50.9678C115.362 51.1645 115.318 51.394 115.318 51.6564V60.4437C115.318 60.9028 115.351 61.2744 115.417 61.5585C115.504 61.8427 115.624 62.0504 115.777 62.1815C115.952 62.3127 116.182 62.3782 116.466 62.3782C117.93 62.3782 119.308 62.1487 120.597 61.6897C121.887 61.2306 122.98 60.553 123.876 59.6568C124.335 59.2196 124.75 58.7168 125.122 58.1485C125.516 57.5583 125.865 56.8807 126.171 56.1156C126.499 55.3505 126.794 54.4652 127.057 53.4597C127.1 53.3504 127.144 53.2849 127.188 53.263C127.231 53.2411 127.264 53.263 127.286 53.3286C127.308 53.3723 127.308 53.4269 127.286 53.4925C127.046 55.0445 126.871 56.5637 126.761 58.0501C126.674 59.5147 126.619 60.9137 126.598 62.2471C126.598 62.575 126.532 62.8045 126.401 62.9356C126.292 63.0668 126.117 63.1324 125.876 63.1324C125.614 63.1542 125.22 63.1215 124.696 63.034C122.991 62.7936 121.22 62.6733 119.384 62.6733H109.22ZM138.336 51.6891C138.226 51.6891 138.172 51.6564 138.172 51.5908C138.172 51.5252 138.237 51.4815 138.368 51.4596L139.09 51.4268C140.205 51.2957 141.09 50.9787 141.746 50.476C142.423 49.9732 142.904 49.2956 143.188 48.4431C143.494 47.5687 143.647 46.4867 143.647 45.197C143.647 43.9729 143.462 42.9674 143.09 42.1804C142.718 41.3716 142.194 40.7815 141.516 40.4098C140.838 40.0164 140.041 39.8197 139.123 39.8197L138.336 39.7869C137.92 39.765 137.625 39.8524 137.45 40.0492C137.297 40.224 137.221 40.5629 137.221 41.0656V58.2469C137.221 59.2305 137.319 60.0393 137.516 60.6732C137.734 61.3071 138.019 61.7662 138.368 62.0504C138.74 62.3127 139.155 62.4547 139.614 62.4766C139.702 62.4766 139.756 62.4985 139.778 62.5422C139.822 62.5859 139.822 62.6296 139.778 62.6733C139.735 62.7389 139.68 62.7717 139.614 62.7717C139.133 62.728 138.674 62.7061 138.237 62.7061C138.019 62.7061 137.767 62.6952 137.483 62.6733H131.122C130.838 62.6952 130.587 62.7061 130.368 62.7061C129.909 62.7061 129.45 62.728 128.991 62.7717C128.903 62.7717 128.838 62.7389 128.794 62.6733C128.772 62.6296 128.772 62.5859 128.794 62.5422C128.816 62.4985 128.882 62.4766 128.991 62.4766C129.45 62.4547 129.854 62.3127 130.204 62.0504C130.576 61.7662 130.86 61.3071 131.057 60.6732C131.275 60.0393 131.384 59.2305 131.384 58.2469V44.1478C131.384 43.1641 131.275 42.3662 131.057 41.7542C130.86 41.1203 130.576 40.6722 130.204 40.4098C129.854 40.1257 129.439 39.9727 128.958 39.9508C128.871 39.9508 128.805 39.9289 128.761 39.8852C128.739 39.8415 128.75 39.7978 128.794 39.7541C128.838 39.6885 128.892 39.6557 128.958 39.6557C129.461 39.6994 130.171 39.7213 131.089 39.7213C132.051 39.7213 133.221 39.6885 134.598 39.6229C136.784 39.5355 138.62 39.4918 140.106 39.4918C143.582 39.4918 146.139 39.9945 147.779 41C149.418 41.9837 150.238 43.5576 150.238 45.7216C150.238 46.902 149.899 47.9184 149.221 48.771C148.566 49.6235 147.571 50.3011 146.238 50.8038C144.926 51.3066 143.287 51.6236 141.319 51.7547V51.9187L138.336 51.6891ZM139.516 51.5908C140.522 51.7438 141.56 51.8422 142.631 51.8859C143.724 51.9077 144.795 51.8531 145.844 51.7219C145.954 51.7001 146.052 51.7329 146.139 51.8203C146.249 51.8859 146.325 51.9842 146.369 52.1154C147.046 54.9571 147.975 57.5146 149.156 59.7879C150.358 62.0394 151.702 63.5477 153.189 64.3128L153.484 64.4439C153.615 64.4876 153.659 64.5423 153.615 64.6079C153.593 64.6953 153.528 64.7172 153.418 64.6734C151.079 64.0833 149.134 63.3182 147.582 62.3782C146.03 61.4164 144.609 60.094 143.319 58.4108C142.052 56.7058 140.784 54.4325 139.516 51.5908Z" fill="#616255"/>
</svg>
