<svg width="241" height="109" viewBox="0 0 241 109" fill="none" xmlns="http://www.w3.org/2000/svg">
<path d="M29.4338 25.4922C29.3964 25.6042 29.3218 25.6788 29.2098 25.7162C29.0978 25.7535 29.0044 25.7348 28.9298 25.6602C28.8924 25.5855 28.8924 25.4922 28.9298 25.3802C29.9751 22.8415 30.3111 20.2095 29.9378 17.4842C29.6018 14.7588 28.7618 12.2202 27.4178 9.86818C26.1858 7.62818 24.6364 5.83618 22.7698 4.49218C20.9031 3.14818 18.9991 2.47618 17.0578 2.47618C15.4524 2.47618 14.0524 2.75618 12.8578 3.31618C11.7004 3.83885 10.7858 4.69751 10.1138 5.89218C9.47909 7.08685 9.16176 8.65485 9.16176 10.5962C9.16176 14.9642 10.0204 19.1268 11.7378 23.0842C13.4924 27.0042 15.8071 30.1588 18.6818 32.5482C21.5564 34.9375 24.5804 36.1322 27.7538 36.1322C29.2844 36.1322 30.9084 35.8708 32.6258 35.3482C34.3431 34.8255 35.8924 33.9482 37.2738 32.7162C37.3858 32.6042 37.4791 32.5482 37.5538 32.5482C37.6658 32.5482 37.7218 32.5855 37.7218 32.6602C37.7218 32.7348 37.6844 32.8468 37.6098 32.9962C35.2204 35.8708 32.5511 38.0735 29.6018 39.6042C26.6524 41.0975 23.4791 41.8442 20.0818 41.8442C16.4978 41.8442 13.1751 41.0228 10.1138 39.3802C7.08976 37.7375 4.66309 35.4042 2.83376 32.3802C1.04176 29.3562 0.14576 25.8842 0.14576 21.9642C0.14576 18.0442 1.13509 14.4602 3.11376 11.2122C5.09243 7.96418 7.76176 5.40685 11.1218 3.54018C14.5191 1.63618 18.1778 0.684181 22.0978 0.684181C24.7484 0.684181 27.2871 1.05751 29.7138 1.80418C32.1404 2.51351 34.0258 3.42818 35.3698 4.54818C36.7138 5.63085 37.2178 6.65751 36.8818 7.62818L29.4338 25.4922ZM61.5156 41.8442C57.969 41.8442 54.889 41.1722 52.2756 39.8282C49.6623 38.4842 47.6463 36.5802 46.2276 34.1162C44.8463 31.6522 44.1556 28.7215 44.1556 25.3242V9.19618C44.1556 7.51618 43.969 6.13485 43.5956 5.05218C43.2596 3.96951 42.8116 3.20418 42.2516 2.75618C41.6916 2.27085 41.0383 2.00951 40.2916 1.97218C40.1423 1.97218 40.0303 1.93485 39.9556 1.86018C39.9183 1.78551 39.937 1.71085 40.0116 1.63618C40.0863 1.52418 40.1796 1.46818 40.2916 1.46818C41.0756 1.54285 41.8223 1.58018 42.5316 1.58018C42.905 1.58018 43.3156 1.59885 43.7636 1.63618H54.6836C55.2436 1.59885 55.7476 1.58018 56.1956 1.58018C57.129 1.58018 58.081 1.54285 59.0516 1.46818C59.201 1.46818 59.313 1.52418 59.3876 1.63618C59.4996 1.71085 59.5183 1.78551 59.4436 1.86018C59.369 1.93485 59.2383 1.97218 59.0516 1.97218C58.081 2.00951 57.2223 2.27085 56.4756 2.75618C55.7663 3.20418 55.1876 3.96951 54.7396 5.05218C54.329 6.13485 54.1236 7.51618 54.1236 9.19618V25.8842C54.1236 28.3855 54.5716 30.5695 55.4676 32.4362C56.3636 34.2655 57.6516 35.6842 59.3316 36.6922C61.049 37.6628 63.0463 38.1482 65.3236 38.1482C67.489 38.1482 69.393 37.6068 71.0356 36.5242C72.6783 35.4415 73.9476 33.9295 74.8436 31.9882C75.7396 30.0095 76.1876 27.7322 76.1876 25.1562L76.1316 9.19618C76.1316 7.51618 75.9076 6.13485 75.4596 5.05218C75.0116 3.96951 74.4143 3.20418 73.6676 2.75618C72.9583 2.27085 72.137 2.00951 71.2036 1.97218C70.9796 1.97218 70.8303 1.93485 70.7556 1.86018C70.7183 1.78551 70.737 1.71085 70.8116 1.63618C70.9236 1.52418 71.0543 1.46818 71.2036 1.46818C72.1743 1.54285 73.1263 1.58018 74.0596 1.58018C74.5076 1.58018 75.0116 1.59885 75.5716 1.63618H76.9716C77.3076 1.59885 77.6436 1.58018 77.9796 1.58018C78.6143 1.58018 79.2303 1.54285 79.8276 1.46818C79.977 1.46818 80.0703 1.52418 80.1076 1.63618C80.1823 1.71085 80.201 1.78551 80.1636 1.86018C80.1263 1.93485 80.033 1.97218 79.8836 1.97218C79.249 2.00951 78.689 2.27085 78.2036 2.75618C77.7556 3.20418 77.3823 3.96951 77.0836 5.05218C76.785 6.13485 76.6356 7.51618 76.6356 9.19618L76.5796 24.9882C76.5796 28.4602 75.9823 31.4655 74.7876 34.0042C73.593 36.5428 71.857 38.4842 69.5796 39.8282C67.3396 41.1722 64.6516 41.8442 61.5156 41.8442ZM99.5094 22.0762C99.3228 22.0762 99.2294 22.0202 99.2294 21.9082C99.2294 21.7962 99.3414 21.7215 99.5654 21.6842L100.797 21.6282C102.701 21.4042 104.213 20.8628 105.333 20.0042C106.491 19.1455 107.312 17.9882 107.797 16.5322C108.32 15.0388 108.581 13.1908 108.581 10.9882C108.581 8.89751 108.264 7.18018 107.629 5.83618C106.995 4.45485 106.099 3.44685 104.941 2.81218C103.784 2.14018 102.421 1.80418 100.853 1.80418L99.5094 1.74818C98.8001 1.71085 98.2961 1.86018 97.9974 2.19618C97.7361 2.49485 97.6054 3.07351 97.6054 3.93218V33.2762C97.6054 34.9562 97.7734 36.3375 98.1094 37.4202C98.4828 38.5028 98.9681 39.2868 99.5654 39.7722C100.2 40.2202 100.909 40.4628 101.693 40.5002C101.843 40.5002 101.936 40.5375 101.973 40.6122C102.048 40.6868 102.048 40.7615 101.973 40.8362C101.899 40.9482 101.805 41.0042 101.693 41.0042C100.872 40.9295 100.088 40.8922 99.3414 40.8922C98.9681 40.8922 98.5388 40.8735 98.0534 40.8362H87.1894C86.7041 40.8735 86.2748 40.8922 85.9014 40.8922C85.1174 40.8922 84.3334 40.9295 83.5494 41.0042C83.4001 41.0042 83.2881 40.9482 83.2134 40.8362C83.1761 40.7615 83.1761 40.6868 83.2134 40.6122C83.2508 40.5375 83.3628 40.5002 83.5494 40.5002C84.3334 40.4628 85.0241 40.2202 85.6214 39.7722C86.2561 39.2868 86.7414 38.5028 87.0774 37.4202C87.4508 36.3375 87.6374 34.9562 87.6374 33.2762V9.19618C87.6374 7.51618 87.4508 6.15351 87.0774 5.10818C86.7414 4.02551 86.2561 3.26018 85.6214 2.81218C85.0241 2.32685 84.3148 2.06551 83.4934 2.02818C83.3441 2.02818 83.2321 1.99085 83.1574 1.91618C83.1201 1.84151 83.1388 1.76685 83.2134 1.69218C83.2881 1.58018 83.3814 1.52418 83.4934 1.52418C84.3521 1.59885 85.5654 1.63618 87.1334 1.63618C88.7761 1.63618 90.7734 1.58018 93.1254 1.46818C96.8588 1.31885 99.9948 1.24418 102.533 1.24418C108.469 1.24418 112.837 2.10285 115.637 3.82018C118.437 5.50018 119.837 8.18818 119.837 11.8842C119.837 13.9002 119.259 15.6362 118.101 17.0922C116.981 18.5482 115.283 19.7055 113.005 20.5642C110.765 21.4228 107.965 21.9642 104.605 22.1882V22.4682L99.5094 22.0762ZM101.525 21.9082C103.243 22.1695 105.016 22.3375 106.845 22.4122C108.712 22.4495 110.541 22.3562 112.333 22.1322C112.52 22.0948 112.688 22.1508 112.837 22.3002C113.024 22.4122 113.155 22.5802 113.229 22.8042C114.387 27.6575 115.973 32.0255 117.989 35.9082C120.043 39.7535 122.339 42.3295 124.877 43.6362L125.381 43.8602C125.605 43.9348 125.68 44.0282 125.605 44.1402C125.568 44.2895 125.456 44.3268 125.269 44.2522C121.275 43.2442 117.952 41.9375 115.301 40.3322C112.651 38.6895 110.224 36.4308 108.021 33.5562C105.856 30.6442 103.691 26.7615 101.525 21.9082ZM129.104 23.7562C129.141 23.5695 129.197 23.4575 129.272 23.4202C129.346 23.3455 129.402 23.3455 129.44 23.4202C129.514 23.4948 129.552 23.6442 129.552 23.8682C129.402 27.3402 129.757 30.3828 130.616 32.9962C131.512 35.5722 132.818 37.5695 134.536 38.9882C136.29 40.3695 138.4 41.0602 140.864 41.0602C142.021 41.0602 143.066 40.8922 144 40.5562C144.97 40.1828 145.754 39.5668 146.352 38.7082C146.949 37.8495 147.248 36.7295 147.248 35.3482C147.248 33.7428 146.837 32.2868 146.016 30.9802C145.232 29.6735 144.186 28.4975 142.88 27.4522C141.61 26.4068 140.042 25.3055 138.176 24.1482C135.712 22.5055 133.714 21.0682 132.184 19.8362C130.69 18.6042 129.477 17.2788 128.544 15.8602C127.61 14.4415 127.144 12.8922 127.144 11.2122C127.144 9.34551 127.853 7.60951 129.272 6.00418C130.728 4.39885 132.725 3.11085 135.264 2.14018C137.802 1.16951 140.658 0.684181 143.832 0.684181C145.773 0.684181 147.77 0.964181 149.824 1.52418C151.877 2.08418 153.52 2.86818 154.752 3.87618C155.984 4.84685 156.413 5.94818 156.04 7.18018L153.184 16.2522C153.109 16.5135 152.997 16.6255 152.848 16.5882C152.736 16.5508 152.68 16.3828 152.68 16.0842C152.866 13.4708 152.493 11.0442 151.56 8.80418C150.626 6.56418 149.282 4.79085 147.528 3.48418C145.81 2.14018 143.869 1.46818 141.704 1.46818C139.725 1.46818 138.325 1.84151 137.504 2.58818C136.682 3.29751 136.272 4.39885 136.272 5.89218C136.272 7.12418 136.626 8.26285 137.336 9.30818C138.045 10.3535 139.016 11.3428 140.248 12.2762C141.48 13.2095 143.141 14.3295 145.232 15.6362L145.68 15.9722C148.032 17.3908 149.954 18.7162 151.448 19.9482C152.978 21.1428 154.248 22.5802 155.256 24.2602C156.301 25.9028 156.824 27.7882 156.824 29.9162C156.824 32.3055 156.096 34.3962 154.64 36.1882C153.221 37.9802 151.205 39.3802 148.592 40.3882C146.016 41.3588 143.01 41.8442 139.576 41.8442C137.074 41.8442 134.666 41.4708 132.352 40.7242C130.074 39.9775 128.301 39.0255 127.032 37.8682C125.762 36.6735 125.314 35.4602 125.688 34.2282L129.104 23.7562ZM181.206 41.8442C177.211 41.8442 173.646 41.0042 170.51 39.3242C167.411 37.6068 164.984 35.2362 163.23 32.2122C161.512 29.1882 160.654 25.7722 160.654 21.9642C160.654 18.0068 161.643 14.4228 163.622 11.2122C165.638 7.96418 168.382 5.40685 171.854 3.54018C175.326 1.63618 179.246 0.684181 183.614 0.684181C187.683 0.684181 191.304 1.54285 194.478 3.26018C197.688 4.94018 200.19 7.29218 201.982 10.3162C203.774 13.3028 204.67 16.7002 204.67 20.5082C204.67 24.4282 203.643 28.0308 201.59 31.3162C199.574 34.5642 196.774 37.1402 193.19 39.0442C189.643 40.9108 185.648 41.8442 181.206 41.8442ZM187.926 39.8842C189.531 39.8842 190.912 39.5668 192.07 38.9322C193.227 38.2602 194.104 37.3082 194.702 36.0762C195.336 34.8068 195.654 33.2762 195.654 31.4842C195.654 27.3402 194.758 23.0095 192.966 18.4922C191.174 13.9375 188.84 10.1482 185.966 7.12418C183.091 4.06285 180.142 2.53218 177.118 2.53218C175.587 2.53218 174.262 2.84951 173.142 3.48418C172.022 4.11885 171.144 5.05218 170.51 6.28418C169.912 7.47885 169.614 8.97218 169.614 10.7642C169.614 14.8708 170.491 19.2202 172.246 23.8122C174.038 28.4042 176.352 32.2308 179.19 35.2922C182.027 38.3535 184.939 39.8842 187.926 39.8842ZM213.104 23.7562C213.141 23.5695 213.197 23.4575 213.272 23.4202C213.346 23.3455 213.402 23.3455 213.44 23.4202C213.514 23.4948 213.552 23.6442 213.552 23.8682C213.402 27.3402 213.757 30.3828 214.616 32.9962C215.512 35.5722 216.818 37.5695 218.536 38.9882C220.29 40.3695 222.4 41.0602 224.864 41.0602C226.021 41.0602 227.066 40.8922 228 40.5562C228.97 40.1828 229.754 39.5668 230.352 38.7082C230.949 37.8495 231.248 36.7295 231.248 35.3482C231.248 33.7428 230.837 32.2868 230.016 30.9802C229.232 29.6735 228.186 28.4975 226.88 27.4522C225.61 26.4068 224.042 25.3055 222.176 24.1482C219.712 22.5055 217.714 21.0682 216.184 19.8362C214.69 18.6042 213.477 17.2788 212.544 15.8602C211.61 14.4415 211.144 12.8922 211.144 11.2122C211.144 9.34551 211.853 7.60951 213.272 6.00418C214.728 4.39885 216.725 3.11085 219.264 2.14018C221.802 1.16951 224.658 0.684181 227.832 0.684181C229.773 0.684181 231.77 0.964181 233.824 1.52418C235.877 2.08418 237.52 2.86818 238.752 3.87618C239.984 4.84685 240.413 5.94818 240.04 7.18018L237.184 16.2522C237.109 16.5135 236.997 16.6255 236.848 16.5882C236.736 16.5508 236.68 16.3828 236.68 16.0842C236.866 13.4708 236.493 11.0442 235.56 8.80418C234.626 6.56418 233.282 4.79085 231.528 3.48418C229.81 2.14018 227.869 1.46818 225.704 1.46818C223.725 1.46818 222.325 1.84151 221.504 2.58818C220.682 3.29751 220.272 4.39885 220.272 5.89218C220.272 7.12418 220.626 8.26285 221.336 9.30818C222.045 10.3535 223.016 11.3428 224.248 12.2762C225.48 13.2095 227.141 14.3295 229.232 15.6362L229.68 15.9722C232.032 17.3908 233.954 18.7162 235.448 19.9482C236.978 21.1428 238.248 22.5802 239.256 24.2602C240.301 25.9028 240.824 27.7882 240.824 29.9162C240.824 32.3055 240.096 34.3962 238.64 36.1882C237.221 37.9802 235.205 39.3802 232.592 40.3882C230.016 41.3588 227.01 41.8442 223.576 41.8442C221.074 41.8442 218.666 41.4708 216.352 40.7242C214.074 39.9775 212.301 39.0255 211.032 37.8682C209.762 36.6735 209.314 35.4602 209.688 34.2282L213.104 23.7562ZM20.6978 108.844C16.7031 108.844 13.1378 108.004 10.0018 106.324C6.90309 104.607 4.47643 102.236 2.72176 99.2122C1.00443 96.1882 0.14576 92.7722 0.14576 88.9642C0.14576 85.0068 1.13509 81.4228 3.11376 78.2122C5.12976 74.9642 7.87376 72.4068 11.3458 70.5402C14.8178 68.6362 18.7378 67.6842 23.1058 67.6842C27.1751 67.6842 30.7964 68.5428 33.9698 70.2602C37.1804 71.9402 39.6818 74.2922 41.4738 77.3162C43.2658 80.3028 44.1618 83.7002 44.1618 87.5082C44.1618 91.4282 43.1351 95.0308 41.0818 98.3162C39.0658 101.564 36.2658 104.14 32.6818 106.044C29.1351 107.911 25.1404 108.844 20.6978 108.844ZM27.4178 106.884C29.0231 106.884 30.4044 106.567 31.5618 105.932C32.7191 105.26 33.5964 104.308 34.1938 103.076C34.8284 101.807 35.1458 100.276 35.1458 98.4842C35.1458 94.3402 34.2498 90.0095 32.4578 85.4922C30.6658 80.9375 28.3324 77.1482 25.4578 74.1242C22.5831 71.0628 19.6338 69.5322 16.6098 69.5322C15.0791 69.5322 13.7538 69.8495 12.6338 70.4842C11.5138 71.1188 10.6364 72.0522 10.0018 73.2842C9.40443 74.4788 9.10576 75.9722 9.10576 77.7642C9.10576 81.8708 9.98309 86.2202 11.7378 90.8122C13.5298 95.4042 15.8444 99.2308 18.6818 102.292C21.5191 105.354 24.4311 106.884 27.4178 106.884ZM83.2839 76.1962C83.2839 74.5162 83.0972 73.1348 82.7239 72.0522C82.3506 70.9695 81.8652 70.2042 81.2679 69.7562C80.6706 69.2708 79.9799 69.0095 79.1959 68.9722C79.0092 68.9722 78.8786 68.9348 78.8039 68.8602C78.7666 68.7855 78.7852 68.7108 78.8599 68.6362C78.9719 68.5242 79.0839 68.4682 79.1959 68.4682C80.0172 68.5428 80.8012 68.5802 81.5479 68.5802C81.9212 68.5802 82.3506 68.5988 82.8359 68.6362H84.4039C84.8519 68.5988 85.2812 68.5802 85.6919 68.5802C86.4386 68.5802 87.2039 68.5428 87.9879 68.4682C88.1372 68.4682 88.2492 68.5242 88.3239 68.6362C88.3986 68.7108 88.3986 68.7855 88.3239 68.8602C88.2866 68.9348 88.1746 68.9722 87.9879 68.9722C87.2039 69.0095 86.5132 69.2708 85.9159 69.7562C85.3186 70.2042 84.8332 70.9695 84.4599 72.0522C84.0866 73.1348 83.8999 74.5162 83.8999 76.1962V108.172C83.8999 108.284 83.8626 108.378 83.7879 108.452C83.7506 108.527 83.6759 108.564 83.5639 108.564C83.3772 108.564 83.1906 108.452 83.0039 108.228L54.1079 73.6762C53.9586 73.5268 53.8279 73.4522 53.7159 73.4522C53.5292 73.4522 53.4359 73.5828 53.4359 73.8442V100.332C53.4359 102.012 53.6039 103.394 53.9399 104.476C54.3132 105.522 54.7986 106.287 55.3959 106.772C56.0306 107.22 56.7399 107.463 57.5239 107.5C57.7106 107.5 57.8226 107.556 57.8599 107.668C57.8972 107.743 57.8786 107.818 57.8039 107.892C57.7666 107.967 57.6732 108.004 57.5239 108.004C56.7399 107.967 55.9559 107.948 55.1719 107.948C54.7986 107.911 54.3692 107.892 53.8839 107.892H52.3159C51.8306 107.892 51.4012 107.911 51.0279 107.948C50.2812 107.948 49.4972 107.967 48.6759 108.004C48.5639 108.004 48.4706 107.967 48.3959 107.892C48.3212 107.818 48.3026 107.743 48.3399 107.668C48.4146 107.556 48.5266 107.5 48.6759 107.5C49.4599 107.463 50.1506 107.22 50.7479 106.772C51.3826 106.287 51.8679 105.522 52.2039 104.476C52.5772 103.394 52.7639 102.012 52.7639 100.332L52.8199 72.0522L55.3399 74.9082C54.9666 74.4975 54.6119 74.1055 54.2759 73.7322C53.9772 73.3588 53.6599 73.0042 53.3239 72.6682C52.5399 71.7722 51.8492 71.0628 51.2519 70.5402C50.6919 70.0175 50.1506 69.6255 49.6279 69.3642C49.1052 69.1028 48.5452 68.9722 47.9479 68.9722C47.7986 68.9722 47.6866 68.9348 47.6119 68.8602C47.5746 68.7482 47.5932 68.6548 47.6679 68.5802C47.7426 68.5055 47.8359 68.4682 47.9479 68.4682C49.1799 68.5055 50.3932 68.5428 51.5879 68.5802L60.8839 68.6362C62.0039 68.6362 62.7879 68.9535 63.2359 69.5882L82.6119 93.4442C82.7612 93.6308 82.9292 93.7242 83.1159 93.7242C83.2652 93.7242 83.3399 93.5748 83.3399 93.2762L83.2839 76.1962ZM94.7897 107.836C94.3417 107.874 93.9124 107.892 93.5017 107.892C92.755 107.892 91.971 107.93 91.1497 108.004C91.0377 108.004 90.9444 107.948 90.8697 107.836C90.795 107.762 90.7764 107.687 90.8137 107.612C90.8884 107.538 91.0004 107.5 91.1497 107.5C91.971 107.463 92.6804 107.22 93.2777 106.772C93.875 106.287 94.3417 105.503 94.6777 104.42C95.051 103.338 95.2377 101.956 95.2377 100.276V76.1962C95.2377 74.5162 95.051 73.1348 94.6777 72.0522C94.3417 70.9695 93.875 70.2042 93.2777 69.7562C92.6804 69.2708 91.971 69.0095 91.1497 68.9722C91.0004 68.9722 90.8884 68.9348 90.8137 68.8602C90.7764 68.7855 90.795 68.7108 90.8697 68.6362C90.9444 68.5242 91.0377 68.4682 91.1497 68.4682C91.971 68.5428 92.755 68.5802 93.5017 68.5802C93.9124 68.5802 94.3417 68.5988 94.7897 68.6362H105.71C106.158 68.5988 106.606 68.5802 107.054 68.5802C107.838 68.5802 108.659 68.5428 109.518 68.4682C109.667 68.4682 109.779 68.5242 109.854 68.6362C109.928 68.7108 109.928 68.7855 109.854 68.8602C109.816 68.9348 109.704 68.9722 109.518 68.9722C108.696 69.0095 107.95 69.2708 107.278 69.7562C106.643 70.2042 106.139 70.9695 105.766 72.0522C105.392 73.1348 105.206 74.5162 105.206 76.1962V104.7C105.206 105.746 105.336 106.455 105.598 106.828C105.896 107.164 106.438 107.332 107.222 107.332C109.387 107.332 111.459 106.735 113.438 105.54C115.454 104.346 117.208 102.759 118.702 100.78C119.971 99.1748 120.979 97.4202 121.726 95.5162C122.51 93.6122 123.07 91.5028 123.406 89.1882C123.443 88.9642 123.499 88.8335 123.574 88.7962C123.686 88.7588 123.76 88.7775 123.798 88.8522C123.872 88.9268 123.91 89.0388 123.91 89.1882C123.574 92.1002 123.312 95.2362 123.126 98.5962C122.939 101.919 122.883 104.738 122.958 107.052C122.995 107.65 122.958 108.06 122.846 108.284C122.734 108.508 122.491 108.62 122.118 108.62C121.558 108.583 120.998 108.546 120.438 108.508C116.704 108.06 112.99 107.836 109.294 107.836H94.7897ZM130.839 76.1962C130.839 74.5162 130.653 73.1348 130.279 72.0522C129.943 70.9695 129.477 70.2042 128.879 69.7562C128.282 69.2708 127.573 69.0095 126.751 68.9722C126.602 68.9722 126.49 68.9348 126.415 68.8602C126.378 68.7855 126.397 68.7108 126.471 68.6362C126.546 68.5242 126.639 68.4682 126.751 68.4682C127.573 68.5428 128.357 68.5802 129.103 68.5802C129.514 68.5802 129.943 68.5988 130.391 68.6362H141.255C141.741 68.5988 142.189 68.5802 142.599 68.5802C143.346 68.5802 144.111 68.5428 144.895 68.4682C145.045 68.4682 145.138 68.5242 145.175 68.6362C145.25 68.7108 145.269 68.7855 145.231 68.8602C145.194 68.9348 145.082 68.9722 144.895 68.9722C144.111 69.0095 143.421 69.2708 142.823 69.7562C142.226 70.2042 141.741 70.9695 141.367 72.0522C140.994 73.1348 140.807 74.5162 140.807 76.1962V100.276C140.807 101.956 140.994 103.338 141.367 104.42C141.741 105.503 142.226 106.287 142.823 106.772C143.421 107.22 144.111 107.463 144.895 107.5C145.082 107.5 145.194 107.538 145.231 107.612C145.269 107.687 145.25 107.762 145.175 107.836C145.138 107.948 145.045 108.004 144.895 108.004C144.111 107.93 143.346 107.892 142.599 107.892C142.189 107.892 141.741 107.874 141.255 107.836H130.391C129.943 107.874 129.514 107.892 129.103 107.892C128.357 107.892 127.573 107.93 126.751 108.004C126.639 108.004 126.546 107.948 126.471 107.836C126.397 107.762 126.378 107.687 126.415 107.612C126.49 107.538 126.602 107.5 126.751 107.5C127.573 107.463 128.282 107.22 128.879 106.772C129.477 106.287 129.943 105.503 130.279 104.42C130.653 103.338 130.839 101.956 130.839 100.276V76.1962ZM184.237 76.1962C184.237 74.5162 184.05 73.1348 183.677 72.0522C183.304 70.9695 182.818 70.2042 182.221 69.7562C181.624 69.2708 180.933 69.0095 180.149 68.9722C179.962 68.9722 179.832 68.9348 179.757 68.8602C179.72 68.7855 179.738 68.7108 179.813 68.6362C179.925 68.5242 180.037 68.4682 180.149 68.4682C180.97 68.5428 181.754 68.5802 182.501 68.5802C182.874 68.5802 183.304 68.5988 183.789 68.6362H185.357C185.805 68.5988 186.234 68.5802 186.645 68.5802C187.392 68.5802 188.157 68.5428 188.941 68.4682C189.09 68.4682 189.202 68.5242 189.277 68.6362C189.352 68.7108 189.352 68.7855 189.277 68.8602C189.24 68.9348 189.128 68.9722 188.941 68.9722C188.157 69.0095 187.466 69.2708 186.869 69.7562C186.272 70.2042 185.786 70.9695 185.413 72.0522C185.04 73.1348 184.853 74.5162 184.853 76.1962V108.172C184.853 108.284 184.816 108.378 184.741 108.452C184.704 108.527 184.629 108.564 184.517 108.564C184.33 108.564 184.144 108.452 183.957 108.228L155.061 73.6762C154.912 73.5268 154.781 73.4522 154.669 73.4522C154.482 73.4522 154.389 73.5828 154.389 73.8442V100.332C154.389 102.012 154.557 103.394 154.893 104.476C155.266 105.522 155.752 106.287 156.349 106.772C156.984 107.22 157.693 107.463 158.477 107.5C158.664 107.5 158.776 107.556 158.813 107.668C158.85 107.743 158.832 107.818 158.757 107.892C158.72 107.967 158.626 108.004 158.477 108.004C157.693 107.967 156.909 107.948 156.125 107.948C155.752 107.911 155.322 107.892 154.837 107.892H153.269C152.784 107.892 152.354 107.911 151.981 107.948C151.234 107.948 150.45 107.967 149.629 108.004C149.517 108.004 149.424 107.967 149.349 107.892C149.274 107.818 149.256 107.743 149.293 107.668C149.368 107.556 149.48 107.5 149.629 107.5C150.413 107.463 151.104 107.22 151.701 106.772C152.336 106.287 152.821 105.522 153.157 104.476C153.53 103.394 153.717 102.012 153.717 100.332L153.773 72.0522L156.293 74.9082C155.92 74.4975 155.565 74.1055 155.229 73.7322C154.93 73.3588 154.613 73.0042 154.277 72.6682C153.493 71.7722 152.802 71.0628 152.205 70.5402C151.645 70.0175 151.104 69.6255 150.581 69.3642C150.058 69.1028 149.498 68.9722 148.901 68.9722C148.752 68.9722 148.64 68.9348 148.565 68.8602C148.528 68.7482 148.546 68.6548 148.621 68.5802C148.696 68.5055 148.789 68.4682 148.901 68.4682C150.133 68.5055 151.346 68.5428 152.541 68.5802L161.837 68.6362C162.957 68.6362 163.741 68.9535 164.189 69.5882L183.565 93.4442C183.714 93.6308 183.882 93.7242 184.069 93.7242C184.218 93.7242 184.293 93.5748 184.293 93.2762L184.237 76.1962ZM195.743 107.836C195.295 107.874 194.865 107.892 194.455 107.892C193.708 107.892 192.924 107.93 192.103 108.004C191.991 108.004 191.897 107.948 191.823 107.836C191.748 107.762 191.729 107.687 191.767 107.612C191.841 107.538 191.953 107.5 192.103 107.5C192.924 107.463 193.633 107.22 194.231 106.772C194.828 106.287 195.295 105.503 195.631 104.42C196.004 103.338 196.191 101.956 196.191 100.276V76.1962C196.191 74.5162 196.004 73.1348 195.631 72.0522C195.295 70.9695 194.828 70.2042 194.231 69.7562C193.633 69.2708 192.924 69.0095 192.103 68.9722C191.953 68.9722 191.841 68.9348 191.767 68.8602C191.729 68.7855 191.748 68.7108 191.823 68.6362C191.897 68.5242 191.991 68.4682 192.103 68.4682C192.924 68.5428 193.708 68.5802 194.455 68.5802C194.865 68.5802 195.295 68.5988 195.743 68.6362H212.431C215.305 68.6362 218.087 68.4308 220.775 68.0202C221.857 67.9082 222.511 67.8522 222.735 67.8522C223.145 67.8522 223.444 67.9642 223.631 68.1882C223.855 68.3748 223.985 68.7668 224.023 69.3642C224.209 73.8068 224.62 78.8842 225.255 84.5962C225.292 84.7455 225.255 84.8388 225.143 84.8762C225.068 84.9135 224.993 84.8575 224.919 84.7082C224.172 82.5428 223.481 80.7695 222.847 79.3882C222.212 77.9695 221.615 76.7935 221.055 75.8602C220.495 74.9268 219.879 74.1055 219.207 73.3962C218.199 72.2762 217.116 71.3988 215.959 70.7642C214.801 70.1295 213.569 69.7002 212.263 69.4762C210.956 69.2522 209.519 69.1402 207.951 69.1402C207.316 69.1402 206.849 69.3642 206.551 69.8122C206.289 70.2602 206.159 70.8388 206.159 71.5482V85.1562C206.159 85.6042 206.233 85.9962 206.383 86.3322C206.569 86.6682 206.887 86.8362 207.335 86.8362C208.828 86.8362 209.873 86.7988 210.471 86.7242C211.255 86.6122 211.945 86.3322 212.543 85.8842C213.177 85.4362 213.775 84.7455 214.335 83.8122C214.895 82.8415 215.417 81.5722 215.903 80.0042C215.977 79.7802 216.071 79.6682 216.183 79.6682C216.332 79.6682 216.388 79.7802 216.351 80.0042C216.052 81.8708 215.94 84.3162 216.015 87.3402C216.089 90.3642 216.295 92.8468 216.631 94.7882C216.668 94.9748 216.612 95.0868 216.463 95.1242C216.351 95.1242 216.257 95.0122 216.183 94.7882C215.66 93.1828 215.081 91.8575 214.447 90.8122C213.849 89.7668 213.215 88.9828 212.543 88.4602C211.908 87.9002 211.217 87.5642 210.471 87.4522C209.724 87.3775 208.679 87.3402 207.335 87.3402C206.887 87.3402 206.569 87.5082 206.383 87.8442C206.233 88.1802 206.159 88.5722 206.159 89.0202V104.028C206.159 104.812 206.215 105.447 206.327 105.932C206.476 106.418 206.681 106.772 206.943 106.996C207.241 107.22 207.633 107.332 208.119 107.332C210.62 107.332 212.972 106.94 215.175 106.156C217.377 105.372 219.244 104.215 220.775 102.684C221.559 101.938 222.268 101.079 222.903 100.108C223.575 99.1002 224.172 97.9428 224.695 96.6362C225.255 95.3295 225.759 93.8175 226.207 92.1002C226.281 91.9135 226.356 91.8015 226.431 91.7642C226.505 91.7268 226.561 91.7642 226.599 91.8762C226.636 91.9508 226.636 92.0442 226.599 92.1562C226.188 94.8068 225.889 97.4015 225.703 99.9402C225.553 102.442 225.46 104.831 225.423 107.108C225.423 107.668 225.311 108.06 225.087 108.284C224.9 108.508 224.601 108.62 224.191 108.62C223.743 108.658 223.071 108.602 222.175 108.452C219.263 108.042 216.239 107.836 213.103 107.836H195.743Z" fill="#616255"/>
</svg>
