<svg width="170" height="112" viewBox="0 0 170 112" fill="none" xmlns="http://www.w3.org/2000/svg">
<g id="Group 18">
<path id="Vector" d="M12.7818 21.1752L17.9607 4.20955C17.965 4.19482 17.9745 4.18215 17.9874 4.17388C18.0004 4.16561 18.0159 4.16232 18.0312 4.1646L25.562 5.35404C25.5709 5.35547 25.5794 5.35879 25.587 5.36376C25.5945 5.36874 25.6009 5.37526 25.6057 5.3829C25.6105 5.39054 25.6137 5.39911 25.6149 5.40805C25.6161 5.41698 25.6154 5.42608 25.6128 5.43472L21.6128 18.7283C21.6102 18.7368 21.6094 18.7457 21.6105 18.7545C21.6116 18.7633 21.6145 18.7718 21.6191 18.7794C21.6237 18.787 21.6298 18.7936 21.6371 18.7987C21.6444 18.8038 21.6526 18.8073 21.6613 18.809L23.4111 19.1559C23.4266 19.1589 23.4425 19.156 23.456 19.1479C23.4694 19.1399 23.4794 19.1271 23.484 19.1121L29.1147 0.0453632C29.119 0.0310707 29.1282 0.0187299 29.1406 0.0105091C29.1531 0.00228834 29.1681 -0.00128627 29.1829 0.000413509L41.8233 1.53908C41.8336 1.54044 41.8434 1.54431 41.8519 1.55033C41.8603 1.55636 41.8672 1.56437 41.8718 1.57365L49.6165 16.8508C49.6238 16.865 49.6254 16.8815 49.6211 16.8969L45.1564 32.4956C45.1542 32.5037 45.1535 32.5121 45.1545 32.5204C45.1555 32.5287 45.1581 32.5367 45.1622 32.544L46.6208 35.1949C46.6248 35.2023 46.6273 35.2104 46.6281 35.2188C46.629 35.2272 46.6281 35.2356 46.6257 35.2437C46.6232 35.2517 46.6191 35.2592 46.6137 35.2657C46.6083 35.2721 46.6017 35.2775 46.5942 35.2814L29.7296 43.5878C29.7219 43.5915 29.7135 43.5936 29.705 43.594C29.6964 43.5944 29.6879 43.5931 29.6799 43.5901L0.0431682 33.2528C0.0275474 33.2476 0.0145952 33.2365 0.00704725 33.2218C-0.000500684 33.2072 -0.00205332 33.1902 0.00271725 33.1745L5.60923 14.8039C5.61382 14.7884 5.62414 14.7753 5.6381 14.7671C5.65205 14.759 5.66859 14.7565 5.68435 14.7601L12.6535 16.3333C12.662 16.3353 12.67 16.339 12.677 16.3442C12.684 16.3494 12.6899 16.356 12.6942 16.3636C12.6986 16.3712 12.7013 16.3795 12.7022 16.3882C12.7032 16.3969 12.7023 16.4057 12.6997 16.414L11.2909 20.8294C11.2882 20.8378 11.2874 20.8465 11.2883 20.8552C11.2893 20.8639 11.292 20.8723 11.2963 20.8798C11.3007 20.8874 11.3065 20.894 11.3135 20.8992C11.3206 20.9044 11.3286 20.9081 11.3371 20.9101L12.7066 21.219C12.7224 21.2226 12.7389 21.2201 12.7529 21.2119C12.7669 21.2038 12.7772 21.1907 12.7818 21.1752Z" fill="#907030"/>
<path id="Vector_2" d="M63.3398 50.6715L63.3352 44.2068C63.3352 44.2014 63.3362 44.196 63.3383 44.1909C63.3403 44.1859 63.3433 44.1813 63.347 44.1775C63.3508 44.1736 63.3552 44.1706 63.3602 44.1685C63.3651 44.1664 63.3703 44.1653 63.3756 44.1653L66.4765 44.1688C66.5005 44.1688 66.5236 44.1593 66.5406 44.1425C66.5577 44.1257 66.5675 44.1028 66.5678 44.0789C66.5898 38.572 69.6063 33.5445 75.1365 32.0831C78.2223 31.267 81.4226 31.4595 84.2923 32.8864C84.3144 32.8971 84.3394 32.9004 84.3635 32.8958C84.3877 32.8913 84.4097 32.8791 84.4263 32.861C85.6353 31.5506 87.0499 30.6792 88.7904 30.1433C93.8722 28.5781 100.436 29.4621 103.829 33.9928C103.846 34.0163 103.855 34.045 103.854 34.0742C103.853 34.1033 103.841 34.1311 103.822 34.1531L99.4244 39.1356C99.4178 39.1431 99.4098 39.1492 99.4007 39.1536C99.3917 39.158 99.3819 39.1605 99.3719 39.1611C99.3619 39.1616 99.3519 39.1601 99.3424 39.1567C99.333 39.1533 99.3243 39.1481 99.3169 39.1413C97.5325 37.4793 94.4143 37.0713 92.2265 38.1547C89.9947 39.2589 89.3394 41.813 89.3313 44.0823C89.3313 44.105 89.3403 44.1267 89.3564 44.1426C89.3724 44.1586 89.3942 44.1676 89.4168 44.1676L103.281 44.1619C103.304 44.1619 103.327 44.171 103.343 44.1872C103.36 44.2034 103.369 44.2254 103.369 44.2483L103.368 74.5986C103.368 74.6316 103.347 74.6482 103.304 74.6482L94.516 74.6505C94.4896 74.6505 94.4643 74.6399 94.4457 74.6211C94.4271 74.6023 94.4166 74.5768 94.4166 74.5502L94.412 51.1279C94.412 51.0326 94.3642 50.985 94.2687 50.985L89.418 50.9781C89.3956 50.9781 89.3742 50.9868 89.3583 51.0024C89.3425 51.018 89.3336 51.0391 89.3336 51.0611V74.5663C89.3336 74.6209 89.3063 74.6482 89.2516 74.6482L80.5315 74.6516C80.5022 74.6516 80.4876 74.6366 80.4876 74.6067L80.4864 51.0645C80.4864 51.0161 80.4621 50.9919 80.4136 50.9919L75.4948 50.9746C75.4727 50.9746 75.4515 50.9834 75.4359 50.9989C75.4203 51.0145 75.4115 51.0356 75.4115 51.0576L75.4127 74.6044C75.4127 74.616 75.4087 74.6271 75.4015 74.6353C75.3944 74.6436 75.3847 74.6482 75.3746 74.6482L66.666 74.6516C66.64 74.6516 66.615 74.6413 66.5966 74.6229C66.5782 74.6046 66.5678 74.5796 66.5678 74.5536L66.5655 51.0772C66.5655 51.0509 66.5551 51.0257 66.5367 51.0071C66.5183 50.9885 66.4933 50.9781 66.4673 50.9781L63.5883 50.9815C63.5768 50.9816 63.5655 50.9846 63.5555 50.9903C63.5455 50.996 63.5371 51.0042 63.5312 51.014C63.5253 51.0238 63.522 51.035 63.5217 51.0465C63.5213 51.058 63.524 51.0694 63.5293 51.0795C65.1994 54.1188 65.9044 57.5477 65.8905 60.9984C65.8882 61.504 65.8959 61.9946 65.9136 62.4702C65.9167 62.5371 65.8848 62.5705 65.8177 62.5705H42.9571C42.9457 62.5705 42.9344 62.573 42.9242 62.5781C42.9139 62.5831 42.905 62.5904 42.898 62.5994C42.8911 62.6085 42.8864 62.619 42.8842 62.6302C42.882 62.6414 42.8824 62.6529 42.8855 62.6639C43.8563 66.3521 46.8462 67.6222 50.3573 67.4712C51.8953 67.4051 53.2467 66.8815 54.4117 65.9003C54.5099 65.8184 54.6024 65.8104 54.7203 65.8104C57.9548 65.7919 61.1855 65.7831 64.4123 65.7838C64.4197 65.7839 64.4269 65.7859 64.4333 65.7894C64.4397 65.793 64.4451 65.7981 64.449 65.8043C64.4529 65.8105 64.4552 65.8176 64.4556 65.8248C64.4561 65.8321 64.4547 65.8394 64.4516 65.8461C62.5239 70.0933 59.0474 73.589 54.4614 74.7784C48.8491 76.2341 42.9097 75.2314 38.6531 71.1444C31.3246 64.1046 31.9105 52.3335 40.2457 46.2999C42.7999 44.4512 45.7898 43.3966 48.9381 43.2721C54.7966 43.0393 60.2424 45.5703 63.2924 50.6727C63.2954 50.6777 63.2999 50.6821 63.3052 50.6851C63.3105 50.6882 63.3163 50.6898 63.3217 50.6897C63.3272 50.6896 63.3319 50.6877 63.3352 50.6844C63.3384 50.6811 63.3401 50.6766 63.3398 50.6715ZM81.1255 38.9673C77.8606 38.7299 75.2382 40.635 75.4185 44.0927C75.4194 44.1129 75.4281 44.1319 75.4427 44.1459C75.4573 44.1599 75.4768 44.1676 75.4971 44.1676H80.3778C80.4073 44.1676 80.4356 44.156 80.4566 44.1353C80.4776 44.1146 80.4896 44.0864 80.4899 44.057C80.5022 42.3535 80.7307 40.6804 81.1752 39.0376C81.1773 39.0296 81.1776 39.0212 81.1761 39.013C81.1747 39.0049 81.1714 38.9972 81.1667 38.9905C81.162 38.9838 81.1558 38.9782 81.1487 38.9742C81.1416 38.9702 81.1337 38.9678 81.1255 38.9673ZM50.3677 51.4207C46.9675 51.1786 43.6147 52.511 42.5965 56.0332C42.5634 56.1462 42.6062 56.2026 42.7248 56.2026H56.7116C56.7247 56.2027 56.7375 56.1996 56.7491 56.1936C56.7607 56.1876 56.7706 56.179 56.7781 56.1683C56.7856 56.1577 56.7904 56.1454 56.7921 56.1325C56.7938 56.1196 56.7924 56.1065 56.7879 56.0943C55.7165 53.1772 53.3865 51.6362 50.3677 51.4207Z" fill="black"/>
<path id="Vector_3" d="M113.628 62.5705C113.587 62.5705 113.571 62.5905 113.581 62.6304C114.516 66.4569 117.871 67.7743 121.49 67.432C122.914 67.2983 123.998 66.7681 125.114 65.9095C125.27 65.7908 125.413 65.7873 125.596 65.7873C128.774 65.785 131.948 65.785 135.117 65.7873C135.125 65.7874 135.133 65.7895 135.14 65.7933C135.147 65.7971 135.152 65.8025 135.157 65.809C135.161 65.8155 135.163 65.823 135.164 65.8307C135.165 65.8383 135.163 65.846 135.16 65.853C133.105 70.3042 129.609 73.6996 124.744 74.8775C121.081 75.7638 116.89 75.584 113.453 73.967C108.117 71.4579 104.137 65.5384 104.253 59.5969C104.268 58.8001 104.285 58.2684 104.301 58.0018C104.816 50.1344 111.509 43.755 119.326 43.279C124.812 42.9436 130.023 45.1404 133.218 49.5939C135.873 53.2936 136.727 58.0686 136.594 62.5279C136.594 62.539 136.589 62.5496 136.58 62.5573C136.571 62.5651 136.559 62.5694 136.547 62.5694L113.628 62.5705ZM122.88 51.7365C119.078 50.6888 114.374 51.9209 113.286 56.1196C113.284 56.1294 113.283 56.1396 113.285 56.1495C113.287 56.1594 113.292 56.1687 113.298 56.1767C113.304 56.1847 113.312 56.1912 113.321 56.1957C113.331 56.2002 113.341 56.2026 113.351 56.2026L127.419 56.2038C127.43 56.2039 127.441 56.2012 127.452 56.196C127.462 56.1908 127.471 56.1832 127.477 56.1739C127.484 56.1645 127.488 56.1537 127.49 56.1422C127.492 56.1308 127.491 56.1191 127.487 56.1081C126.739 53.9309 125.088 52.345 122.88 51.7365Z" fill="black"/>
<path id="Vector_4" d="M55.2706 100.86C55.2531 100.851 55.2337 100.846 55.214 100.846L40.9464 100.843C40.9138 100.843 40.8819 100.853 40.8546 100.871C40.8273 100.889 40.8057 100.915 40.7926 100.945L36.3257 111.218C36.3148 111.243 36.2965 111.265 36.273 111.281C36.2496 111.296 36.2221 111.304 36.1939 111.304L33.0977 111.303C33.0884 111.303 33.0792 111.301 33.071 111.296C33.0628 111.292 33.0558 111.285 33.0507 111.278C33.0455 111.27 33.0424 111.261 33.0415 111.252C33.0406 111.242 33.0421 111.233 33.0457 111.225L46.2998 80.2726C46.3104 80.248 46.3278 80.227 46.35 80.2123C46.3722 80.1975 46.3981 80.1896 46.4246 80.1896L49.7716 80.1885C49.7946 80.1884 49.817 80.1951 49.8362 80.2076C49.8553 80.2201 49.8702 80.2379 49.8791 80.2588L63.2256 111.229C63.229 111.237 63.2304 111.246 63.2295 111.255C63.2287 111.264 63.2256 111.272 63.2207 111.28C63.2158 111.287 63.2092 111.293 63.2014 111.298C63.1936 111.302 63.1848 111.304 63.1759 111.304L59.9086 111.305C59.8798 111.305 59.8517 111.297 59.8276 111.281C59.8036 111.265 59.7847 111.242 59.7734 111.215C58.311 107.817 56.849 104.411 55.3874 100.997C55.3589 100.931 55.3199 100.886 55.2706 100.86ZM42.0593 97.9298C42.0557 97.9384 42.0543 97.9477 42.0551 97.957C42.056 97.9662 42.0592 97.9751 42.0643 97.9829C42.0694 97.9906 42.0764 97.997 42.0846 98.0014C42.0929 98.0058 42.102 98.0081 42.1113 98.0082H53.9901C53.9995 98.0083 54.0088 98.0061 54.0172 98.0018C54.0255 97.9975 54.0327 97.9911 54.0379 97.9834C54.0432 97.9756 54.0465 97.9666 54.0474 97.9572C54.0483 97.9479 54.0469 97.9385 54.0432 97.9298L48.1663 83.8974C48.1621 83.8869 48.1548 83.8779 48.1455 83.8716C48.1361 83.8653 48.125 83.8619 48.1137 83.8619C48.1024 83.8619 48.0913 83.8653 48.0819 83.8716C48.0726 83.8779 48.0653 83.8869 48.0611 83.8974L42.0593 97.9298Z" fill="black"/>
<path id="Vector_5" d="M149.27 107.332C148.911 107.766 148.54 108.273 148.181 108.637C144.707 112.151 139.287 112.705 134.914 110.692C130.381 108.606 127.747 104.196 127.928 99.2713C128.175 92.5092 133.81 87.6696 140.412 87.7284C143.899 87.7595 147.227 89.3281 149.251 92.1946C149.289 92.2476 149.319 92.2437 149.34 92.183C149.345 92.17 149.347 92.1412 149.347 92.0966C149.35 88.1495 149.356 84.2039 149.363 80.2598C149.363 80.2513 149.365 80.243 149.368 80.2351C149.371 80.2273 149.376 80.2202 149.382 80.2142C149.388 80.2082 149.395 80.2034 149.402 80.2002C149.41 80.197 149.418 80.1953 149.427 80.1953L152.24 80.1907C152.26 80.1907 152.279 80.1984 152.293 80.2123C152.307 80.2261 152.315 80.2449 152.315 80.2644L152.314 111.226C152.314 111.247 152.305 111.267 152.29 111.282C152.275 111.297 152.254 111.305 152.233 111.305L149.398 111.303C149.386 111.303 149.374 111.298 149.366 111.29C149.358 111.281 149.353 111.27 149.353 111.258L149.356 107.363C149.356 107.273 149.327 107.262 149.27 107.332ZM140.149 109.212C142.628 109.221 145.008 108.236 146.767 106.474C148.526 104.713 149.519 102.319 149.527 99.819C149.532 98.5812 149.294 97.3547 148.829 96.2095C148.363 95.0643 147.678 94.0229 146.813 93.1446C145.949 92.2663 144.921 91.5685 143.789 91.0908C142.657 90.6132 141.442 90.3652 140.215 90.3609C137.736 90.3523 135.356 91.337 133.597 93.0986C131.838 94.8601 130.845 97.2541 130.837 99.7539C130.832 100.992 131.07 102.218 131.535 103.363C132.001 104.509 132.686 105.55 133.551 106.428C134.415 107.307 135.443 108.004 136.575 108.482C137.707 108.96 138.922 109.208 140.149 109.212Z" fill="black"/>
<path id="Vector_6" d="M112.828 107.369C112.828 107.281 112.802 107.272 112.751 107.344C110.908 109.876 108.416 111.346 105.276 111.752C101.548 112.235 97.6415 110.951 94.9637 108.349C91.3416 104.83 90.4043 99.2345 92.4858 94.7004C94.3846 90.5615 98.6077 87.9625 103.168 87.732C106.978 87.5395 110.55 89.0379 112.71 92.2212C112.789 92.3372 112.828 92.325 112.828 92.1843L112.822 88.3797C112.822 88.3611 112.83 88.3432 112.845 88.33C112.859 88.3168 112.879 88.3094 112.9 88.3094L115.708 88.3141C115.733 88.3141 115.757 88.324 115.775 88.3417C115.793 88.3595 115.803 88.3835 115.803 88.4086V111.234C115.803 111.252 115.795 111.27 115.782 111.284C115.769 111.297 115.751 111.304 115.732 111.304L112.915 111.303C112.852 111.303 112.821 111.272 112.821 111.21L112.828 107.369ZM103.635 109.213C104.861 109.218 106.077 108.978 107.212 108.509C108.347 108.039 109.379 107.349 110.25 106.477C111.12 105.605 111.812 104.568 112.286 103.427C112.759 102.285 113.005 101.061 113.009 99.8237C113.018 97.3248 112.042 94.9249 110.297 93.1518C108.551 91.3787 106.178 90.3777 103.701 90.3691C102.474 90.3648 101.258 90.6043 100.123 91.0739C98.988 91.5434 97.9558 92.2339 97.0852 93.1058C96.2147 93.9777 95.523 95.014 95.0495 96.1555C94.576 97.297 94.3301 98.5214 94.3258 99.7587C94.317 102.258 95.2929 104.658 97.0386 106.431C98.7843 108.204 101.157 109.205 103.635 109.213Z" fill="black"/>
<path id="Vector_7" d="M122.3 91.4894C122.3 91.6192 122.329 91.6258 122.386 91.509C123.143 89.9599 124.071 88.8892 125.738 88.3002C126.732 87.9491 127.749 87.757 128.788 87.724C128.798 87.7235 128.808 87.7251 128.817 87.7286C128.827 87.7322 128.836 87.7376 128.843 87.7446C128.85 87.7516 128.856 87.7601 128.86 87.7694C128.864 87.7787 128.866 87.7887 128.866 87.7989L128.867 90.7609C128.868 90.7858 128.858 90.8097 128.842 90.8279C128.825 90.8461 128.802 90.8572 128.777 90.8589C125.654 91.109 123.032 92.9992 122.433 96.1687C122.35 96.6113 122.308 97.377 122.306 98.4658C122.3 102.73 122.3 106.987 122.305 111.236C122.305 111.28 122.283 111.302 122.239 111.302L119.401 111.304C119.347 111.304 119.32 111.277 119.32 111.223V88.359C119.32 88.3524 119.321 88.3459 119.324 88.3398C119.326 88.3337 119.33 88.3282 119.334 88.3236C119.339 88.3189 119.345 88.3153 119.351 88.3129C119.357 88.3105 119.363 88.3093 119.37 88.3095L122.21 88.3129C122.236 88.3129 122.261 88.3231 122.279 88.3413C122.297 88.3594 122.307 88.3841 122.307 88.4097L122.3 91.4894Z" fill="black"/>
<path id="Vector_8" d="M158.526 94.0744C158.684 96.0326 160.687 96.9858 162.355 97.5159C163.465 97.8686 164.537 98.3124 165.569 98.8471C168.158 100.19 169.294 102.164 169.219 105.086C169.124 108.706 166.998 111.209 163.389 111.745C158.637 112.451 154.836 109.462 154.861 104.545C154.862 104.523 154.87 104.502 154.886 104.487C154.902 104.471 154.923 104.462 154.944 104.462L157.751 104.464C157.768 104.463 157.785 104.47 157.798 104.481C157.811 104.493 157.819 104.509 157.821 104.526C157.853 104.783 157.88 105.039 157.903 105.292C158.008 106.456 158.48 107.628 159.413 108.37C160.305 109.077 161.337 109.212 162.487 109.149C164.754 109.022 166.215 107.469 166.241 105.205C166.281 101.739 162.903 100.975 160.373 100.008C158.259 99.201 156.172 97.97 155.677 95.5808C155.122 92.9022 156.122 90.1257 158.502 88.6735C160.435 87.4933 163.085 87.393 165.081 88.413C167.202 89.4976 168.393 91.571 168.409 93.9707C168.409 93.9786 168.406 93.9862 168.4 93.9919C168.394 93.9975 168.387 94.0006 168.379 94.0006L165.516 94.0018C165.494 94.0018 165.474 93.9936 165.458 93.9788C165.442 93.964 165.433 93.9438 165.432 93.9223C165.292 91.8477 163.771 90.1188 161.562 90.4024C159.69 90.6432 158.377 92.2315 158.526 94.0744Z" fill="black"/>
<path id="Vector_9" d="M75.3634 96.0546C75.3533 96.06 75.3425 96.0819 75.331 96.1203C73.7723 101.108 72.1997 106.125 70.6132 111.173C70.6014 111.21 70.578 111.243 70.5462 111.266C70.5144 111.289 70.4759 111.302 70.4364 111.302L67.3101 111.306C67.2856 111.306 67.2617 111.299 67.2415 111.285C67.2213 111.271 67.2057 111.251 67.1969 111.228L58.4941 88.4062C58.4702 88.3424 58.4926 88.3105 58.5612 88.3105L61.5002 88.314C61.5192 88.314 61.5378 88.3199 61.5535 88.3308C61.5692 88.3417 61.5812 88.3571 61.588 88.3751L68.7629 107.426C68.8122 107.558 68.8584 107.557 68.9016 107.422L74.099 91.17C74.1073 91.1444 74.1236 91.122 74.1454 91.1063C74.1673 91.0905 74.1935 91.0822 74.2203 91.0824L76.6462 91.0836C76.6694 91.0836 76.6919 91.0909 76.7106 91.1043C76.7293 91.1178 76.7432 91.1368 76.7502 91.1585L82.0019 107.449C82.0058 107.462 82.0133 107.473 82.0236 107.482C82.0338 107.491 82.0462 107.497 82.059 107.498C82.0719 107.5 82.0844 107.497 82.0949 107.491C82.1054 107.485 82.1133 107.475 82.1175 107.464L89.386 88.3843C89.3946 88.3626 89.4095 88.3439 89.4289 88.3307C89.4483 88.3176 89.4712 88.3105 89.4946 88.3105L92.3643 88.3117C92.4406 88.3117 92.4653 88.3474 92.4383 88.4189L83.7078 111.201C83.6963 111.232 83.6756 111.258 83.6485 111.277C83.6215 111.295 83.5894 111.305 83.5564 111.305L80.4186 111.304C80.3911 111.304 80.3642 111.295 80.342 111.279C80.3198 111.263 80.3033 111.24 80.2949 111.214L75.4651 96.0995C75.4458 96.0411 75.4119 96.0262 75.3634 96.0546Z" fill="black"/>
</g>
</svg>
