<svg width="125" height="42" viewBox="0 0 125 42" fill="none" xmlns="http://www.w3.org/2000/svg">
<path d="M4.95376 40.887C4.50576 40.9244 4.07643 40.943 3.66576 40.943C2.91909 40.943 2.13509 40.9804 1.31376 41.055C1.20176 41.055 1.10843 40.999 1.03376 40.887C0.959093 40.8124 0.940426 40.7377 0.97776 40.663C1.05243 40.5884 1.16443 40.551 1.31376 40.551C2.13509 40.5137 2.84443 40.271 3.44176 39.823C4.03909 39.3377 4.50576 38.5537 4.84176 37.471C5.21509 36.3884 5.40176 35.007 5.40176 33.327V9.24702C5.40176 7.56702 5.21509 6.18569 4.84176 5.10302C4.50576 4.02035 4.03909 3.25502 3.44176 2.80702C2.84443 2.32169 2.13509 2.06036 1.31376 2.02302C1.16443 2.02302 1.05243 1.98569 0.97776 1.91102C0.940426 1.83636 0.959093 1.76169 1.03376 1.68702C1.10843 1.57502 1.20176 1.51902 1.31376 1.51902C2.13509 1.59369 2.91909 1.63102 3.66576 1.63102C4.07643 1.63102 4.50576 1.64969 4.95376 1.68702H21.6418C24.5164 1.68702 27.2978 1.48169 29.9858 1.07102C31.0684 0.959022 31.7218 0.903021 31.9458 0.903021C32.3564 0.903021 32.6551 1.01502 32.8418 1.23902C33.0658 1.42569 33.1964 1.81769 33.2338 2.41502C33.4204 6.85769 33.8311 11.935 34.4658 17.647C34.5031 17.7964 34.4658 17.8897 34.3538 17.927C34.2791 17.9644 34.2044 17.9084 34.1298 17.759C33.3831 15.5937 32.6924 13.8204 32.0578 12.439C31.4231 11.0204 30.8258 9.84436 30.2658 8.91102C29.7058 7.97769 29.0898 7.15636 28.4178 6.44702C27.4098 5.32702 26.3271 4.44969 25.1698 3.81502C24.0124 3.18036 22.7804 2.75102 21.4738 2.52702C20.1671 2.30302 18.7298 2.19102 17.1618 2.19102C16.5271 2.19102 16.0604 2.41502 15.7618 2.86302C15.5004 3.31102 15.3698 3.88969 15.3698 4.59902V18.207C15.3698 18.655 15.4444 19.047 15.5938 19.383C15.7804 19.719 16.0978 19.887 16.5458 19.887C18.0391 19.887 19.0844 19.8497 19.6818 19.775C20.4658 19.663 21.1564 19.383 21.7538 18.935C22.3884 18.487 22.9858 17.7964 23.5458 16.863C24.1058 15.8924 24.6284 14.623 25.1138 13.055C25.1884 12.831 25.2818 12.719 25.3938 12.719C25.5431 12.719 25.5991 12.831 25.5618 13.055C25.2631 14.9217 25.1511 17.367 25.2258 20.391C25.3004 23.415 25.5058 25.8977 25.8418 27.839C25.8791 28.0257 25.8231 28.1377 25.6738 28.175C25.5618 28.175 25.4684 28.063 25.3938 27.839C24.8711 26.2337 24.2924 24.9084 23.6578 23.863C23.0604 22.8177 22.4258 22.0337 21.7538 21.511C21.1191 20.951 20.4284 20.615 19.6818 20.503C18.9351 20.4284 17.8898 20.391 16.5458 20.391C16.0978 20.391 15.7804 20.559 15.5938 20.895C15.4444 21.231 15.3698 21.623 15.3698 22.071V37.079C15.3698 37.863 15.4258 38.4977 15.5378 38.983C15.6871 39.4684 15.8924 39.823 16.1538 40.047C16.4524 40.271 16.8444 40.383 17.3298 40.383C19.8311 40.383 22.1831 39.991 24.3858 39.207C26.5884 38.423 28.4551 37.2657 29.9858 35.735C30.7698 34.9884 31.4791 34.1297 32.1138 33.159C32.7858 32.151 33.3831 30.9937 33.9058 29.687C34.4658 28.3804 34.9698 26.8684 35.4178 25.151C35.4924 24.9644 35.5671 24.8524 35.6418 24.815C35.7164 24.7777 35.7724 24.815 35.8098 24.927C35.8471 25.0017 35.8471 25.095 35.8098 25.207C35.3991 27.8577 35.1004 30.4524 34.9138 32.991C34.7644 35.4924 34.6711 37.8817 34.6338 40.159C34.6338 40.719 34.5218 41.111 34.2978 41.335C34.1111 41.559 33.8124 41.671 33.4018 41.671C32.9538 41.7084 32.2818 41.6524 31.3858 41.503C28.4738 41.0924 25.4498 40.887 22.3138 40.887H4.95376ZM82.5133 33.383C82.7 35.063 83.0173 36.4444 83.4653 37.527C83.9507 38.5724 84.492 39.3377 85.0893 39.823C85.724 40.271 86.4333 40.5137 87.2173 40.551C87.404 40.551 87.516 40.5884 87.5533 40.663C87.5907 40.7377 87.572 40.8124 87.4973 40.887C87.4227 40.999 87.3293 41.055 87.2173 41.055C86.396 40.9804 85.612 40.943 84.8653 40.943C84.4547 40.943 84.0253 40.9244 83.5773 40.887H72.4893C71.8173 40.9244 71.1827 40.943 70.5853 40.943C69.5027 40.943 68.364 40.9804 67.1693 41.055C66.9827 41.055 66.8333 40.999 66.7213 40.887C66.6467 40.8124 66.6467 40.7377 66.7213 40.663C66.796 40.5884 66.9453 40.551 67.1693 40.551C68.2893 40.5137 69.2787 40.271 70.1373 39.823C70.996 39.3377 71.6493 38.5724 72.0973 37.527C72.5453 36.4444 72.6573 35.063 72.4333 33.383L69.6333 9.02302C69.596 8.76169 69.484 8.63102 69.2973 8.63102C69.148 8.63102 69.0173 8.76169 68.9053 9.02302L57.9853 38.479C57.948 38.6657 57.892 38.7964 57.8173 38.871C57.7427 38.9457 57.6493 38.983 57.5373 38.983C57.3507 38.983 57.1827 38.8337 57.0333 38.535L45.7773 9.19102C45.7027 8.96702 45.572 8.85502 45.3853 8.85502C45.1987 8.85502 45.0867 8.98569 45.0493 9.24702L42.5853 33.383C42.3987 35.063 42.5293 36.4444 42.9773 37.527C43.4253 38.5724 44.0787 39.3377 44.9373 39.823C45.8333 40.271 46.8227 40.5137 47.9053 40.551C48.1667 40.551 48.3347 40.5884 48.4093 40.663C48.484 40.7377 48.4653 40.8124 48.3533 40.887C48.2787 40.999 48.1293 41.055 47.9053 41.055C46.748 40.9804 45.6093 40.943 44.4893 40.943C43.9293 40.943 43.3133 40.9244 42.6413 40.887H40.9613C40.5133 40.9244 40.084 40.943 39.6733 40.943C38.9267 40.943 38.1613 40.9804 37.3773 41.055C37.228 41.055 37.116 40.999 37.0413 40.887C37.004 40.8124 37.004 40.7377 37.0413 40.663C37.0787 40.5884 37.1907 40.551 37.3773 40.551C38.1613 40.5137 38.852 40.271 39.4493 39.823C40.084 39.3377 40.6253 38.5724 41.0733 37.527C41.5213 36.4444 41.8387 35.063 42.0253 33.383L44.8253 7.00702L45.6093 8.79902C45.0867 7.52969 44.564 6.46569 44.0413 5.60702C43.556 4.74835 43.0707 4.03902 42.5853 3.47902C42.1373 2.99369 41.6707 2.63902 41.1853 2.41502C40.7 2.15369 40.1773 2.02302 39.6173 2.02302C39.4307 2.02302 39.3187 1.98569 39.2813 1.91102C39.244 1.83636 39.244 1.76169 39.2813 1.68702C39.356 1.57502 39.468 1.51902 39.6173 1.51902C40.4387 1.59369 41.2227 1.63102 41.9693 1.63102C42.3427 1.63102 42.772 1.64969 43.2573 1.68702H51.9933C52.3293 1.68702 52.6093 1.76169 52.8333 1.91102C53.0947 2.02302 53.2627 2.22836 53.3373 2.52702L61.7373 24.479C61.812 24.6657 61.8867 24.759 61.9613 24.759C62.0733 24.759 62.1667 24.6657 62.2413 24.479L70.8653 2.24702C70.9027 2.06035 70.9773 1.92969 71.0893 1.85502C71.2387 1.74302 71.3693 1.68702 71.4813 1.68702H79.5453C79.9933 1.64969 80.4413 1.63102 80.8893 1.63102C81.748 1.63102 82.6067 1.59369 83.4653 1.51902C83.652 1.51902 83.764 1.57502 83.8013 1.68702C83.876 1.76169 83.876 1.83636 83.8013 1.91102C83.764 1.98569 83.652 2.02302 83.4653 2.02302C82.644 2.06036 81.8973 2.32169 81.2253 2.80702C80.5907 3.25502 80.124 4.02035 79.8253 5.10302C79.564 6.14836 79.5267 7.51102 79.7133 9.19102L82.5133 33.383ZM93.4928 40.887C93.0448 40.9244 92.6155 40.943 92.2048 40.943C91.4582 40.943 90.6742 40.9804 89.8528 41.055C89.7408 41.055 89.6475 40.999 89.5728 40.887C89.4982 40.8124 89.4795 40.7377 89.5168 40.663C89.5915 40.5884 89.7035 40.551 89.8528 40.551C90.6742 40.5137 91.3835 40.271 91.9808 39.823C92.5782 39.3377 93.0448 38.5537 93.3808 37.471C93.7542 36.3884 93.9408 35.007 93.9408 33.327V9.24702C93.9408 7.56702 93.7542 6.18569 93.3808 5.10302C93.0448 4.02035 92.5782 3.25502 91.9808 2.80702C91.3835 2.32169 90.6742 2.06036 89.8528 2.02302C89.7035 2.02302 89.5915 1.98569 89.5168 1.91102C89.4795 1.83636 89.4982 1.76169 89.5728 1.68702C89.6475 1.57502 89.7408 1.51902 89.8528 1.51902C90.6742 1.59369 91.4582 1.63102 92.2048 1.63102C92.6155 1.63102 93.0448 1.64969 93.4928 1.68702H110.181C113.055 1.68702 115.837 1.48169 118.525 1.07102C119.607 0.959022 120.261 0.903021 120.485 0.903021C120.895 0.903021 121.194 1.01502 121.381 1.23902C121.605 1.42569 121.735 1.81769 121.773 2.41502C121.959 6.85769 122.37 11.935 123.005 17.647C123.042 17.7964 123.005 17.8897 122.893 17.927C122.818 17.9644 122.743 17.9084 122.669 17.759C121.922 15.5937 121.231 13.8204 120.597 12.439C119.962 11.0204 119.365 9.84436 118.805 8.91102C118.245 7.97769 117.629 7.15636 116.957 6.44702C115.949 5.32702 114.866 4.44969 113.709 3.81502C112.551 3.18036 111.319 2.75102 110.013 2.52702C108.706 2.30302 107.269 2.19102 105.701 2.19102C105.066 2.19102 104.599 2.41502 104.301 2.86302C104.039 3.31102 103.909 3.88969 103.909 4.59902V18.207C103.909 18.655 103.983 19.047 104.133 19.383C104.319 19.719 104.637 19.887 105.085 19.887C106.578 19.887 107.623 19.8497 108.221 19.775C109.005 19.663 109.695 19.383 110.293 18.935C110.927 18.487 111.525 17.7964 112.085 16.863C112.645 15.8924 113.167 14.623 113.653 13.055C113.727 12.831 113.821 12.719 113.933 12.719C114.082 12.719 114.138 12.831 114.101 13.055C113.802 14.9217 113.69 17.367 113.765 20.391C113.839 23.415 114.045 25.8977 114.381 27.839C114.418 28.0257 114.362 28.1377 114.213 28.175C114.101 28.175 114.007 28.063 113.933 27.839C113.41 26.2337 112.831 24.9084 112.197 23.863C111.599 22.8177 110.965 22.0337 110.293 21.511C109.658 20.951 108.967 20.615 108.221 20.503C107.474 20.4284 106.429 20.391 105.085 20.391C104.637 20.391 104.319 20.559 104.133 20.895C103.983 21.231 103.909 21.623 103.909 22.071V37.079C103.909 37.863 103.965 38.4977 104.077 38.983C104.226 39.4684 104.431 39.823 104.693 40.047C104.991 40.271 105.383 40.383 105.869 40.383C108.37 40.383 110.722 39.991 112.925 39.207C115.127 38.423 116.994 37.2657 118.525 35.735C119.309 34.9884 120.018 34.1297 120.653 33.159C121.325 32.151 121.922 30.9937 122.445 29.687C123.005 28.3804 123.509 26.8684 123.957 25.151C124.031 24.9644 124.106 24.8524 124.181 24.815C124.255 24.7777 124.311 24.815 124.349 24.927C124.386 25.0017 124.386 25.095 124.349 25.207C123.938 27.8577 123.639 30.4524 123.453 32.991C123.303 35.4924 123.21 37.8817 123.173 40.159C123.173 40.719 123.061 41.111 122.837 41.335C122.65 41.559 122.351 41.671 121.941 41.671C121.493 41.7084 120.821 41.6524 119.925 41.503C117.013 41.0924 113.989 40.887 110.853 40.887H93.4928Z" fill="#9879DA"/>
</svg>
