<svg width="237" height="108" viewBox="0 0 237 108" fill="none" xmlns="http://www.w3.org/2000/svg">
<path d="M18.445 23.6969C18.2583 23.6596 18.165 23.5662 18.165 23.4169C18.165 23.2676 18.2583 23.1929 18.445 23.1929L20.293 23.2489C22.7196 23.2489 24.605 22.3156 25.949 20.4489C27.293 18.5449 27.9463 16.1369 27.909 13.2249C27.8716 11.2836 27.5543 9.39822 26.957 7.56889C26.3596 5.70222 25.4823 4.17155 24.325 2.97689C23.205 1.74489 21.917 1.12889 20.461 1.12889L18.613 1.01689C17.829 1.01689 17.3063 1.20355 17.045 1.57689C16.821 1.91289 16.709 2.52889 16.709 3.42489V32.6009C16.709 34.2809 16.9516 35.6622 17.437 36.7449C17.9223 37.8276 18.557 38.6116 19.341 39.0969C20.125 39.5449 21.021 39.7876 22.029 39.8249C22.2156 39.8249 22.3463 39.8622 22.421 39.9369C22.533 40.0116 22.533 40.0862 22.421 40.1609C22.3463 40.2729 22.2156 40.3289 22.029 40.3289C21.021 40.2542 19.9943 40.2169 18.949 40.2169C18.4636 40.2169 17.9223 40.1982 17.325 40.1609H6.29296C5.80763 40.1982 5.3783 40.2169 5.00496 40.2169C4.22096 40.2169 3.43696 40.2542 2.65296 40.3289C2.50363 40.3289 2.39163 40.2729 2.31696 40.1609C2.27963 40.0862 2.27963 40.0116 2.31696 39.9369C2.3543 39.8622 2.4663 39.8249 2.65296 39.8249C3.43696 39.7876 4.12763 39.5449 4.72496 39.0969C5.35963 38.6116 5.84496 37.8276 6.18096 36.7449C6.5543 35.6622 6.74096 34.2809 6.74096 32.6009V8.52089C6.74096 6.84089 6.5543 5.47822 6.18096 4.43289C5.84496 3.35022 5.35963 2.58489 4.72496 2.13689C4.12763 1.65155 3.4183 1.40889 2.59696 1.40889C2.44763 1.40889 2.33563 1.37155 2.26096 1.29689C2.22363 1.18489 2.2423 1.09155 2.31696 1.01689C2.39163 0.94222 2.48496 0.904887 2.59696 0.904887C3.45563 0.94222 4.66896 0.960886 6.23696 0.960886C7.91696 0.960886 9.89563 0.904887 12.173 0.792888C15.869 0.643555 19.0423 0.568888 21.693 0.568888C25.501 0.568888 28.6556 1.01689 31.157 1.91289C33.6956 2.77155 35.581 4.07822 36.813 5.83289C38.0823 7.55022 38.717 9.69689 38.717 12.2729C38.717 14.8116 38.0636 16.9956 36.757 18.8249C35.4876 20.6542 33.4903 22.0169 30.765 22.9129C28.077 23.8089 24.7356 24.1076 20.741 23.8089L18.445 23.6969ZM45.1745 40.1609C44.7265 40.1982 44.2971 40.2169 43.8865 40.2169C43.1398 40.2169 42.3558 40.2542 41.5345 40.3289C41.4225 40.3289 41.3291 40.2729 41.2545 40.1609C41.1798 40.0862 41.1611 40.0116 41.1985 39.9369C41.2731 39.8622 41.3851 39.8249 41.5345 39.8249C42.3558 39.7876 43.0651 39.5449 43.6625 39.0969C44.2598 38.6116 44.7265 37.8276 45.0625 36.7449C45.4358 35.6622 45.6225 34.2809 45.6225 32.6009V8.52089C45.6225 6.84089 45.4358 5.45955 45.0625 4.37689C44.7265 3.29422 44.2598 2.52889 43.6625 2.08089C43.0651 1.59555 42.3558 1.33422 41.5345 1.29689C41.3851 1.29689 41.2731 1.25955 41.1985 1.18489C41.1611 1.11022 41.1798 1.03555 41.2545 0.960886C41.3291 0.848887 41.4225 0.792888 41.5345 0.792888C42.3558 0.867554 43.1398 0.904887 43.8865 0.904887C44.2971 0.904887 44.7265 0.923553 45.1745 0.960886H61.8625C64.7371 0.960886 67.5185 0.755553 70.2065 0.344887C71.2891 0.232886 71.9425 0.176886 72.1665 0.176886C72.5771 0.176886 72.8758 0.288887 73.0625 0.512888C73.2865 0.699555 73.4171 1.09155 73.4545 1.68889C73.6411 6.13155 74.0518 11.2089 74.6865 16.9209C74.7238 17.0702 74.6865 17.1636 74.5745 17.2009C74.4998 17.2382 74.4251 17.1822 74.3505 17.0329C73.6038 14.8676 72.9131 13.0942 72.2785 11.7129C71.6438 10.2942 71.0465 9.11822 70.4865 8.18489C69.9265 7.25155 69.3105 6.43022 68.6385 5.72089C67.6305 4.60089 66.5478 3.72355 65.3905 3.08889C64.2331 2.45422 63.0011 2.02489 61.6945 1.80089C60.3878 1.57689 58.9505 1.46489 57.3825 1.46489C56.7478 1.46489 56.2811 1.68889 55.9825 2.13689C55.7211 2.58489 55.5905 3.16355 55.5905 3.87289V17.4809C55.5905 17.9289 55.6651 18.3209 55.8145 18.6569C56.0011 18.9929 56.3185 19.1609 56.7665 19.1609C58.2598 19.1609 59.3051 19.1236 59.9025 19.0489C60.6865 18.9369 61.3771 18.6569 61.9745 18.2089C62.6091 17.7609 63.2065 17.0702 63.7665 16.1369C64.3265 15.1662 64.8491 13.8969 65.3345 12.3289C65.4091 12.1049 65.5025 11.9929 65.6145 11.9929C65.7638 11.9929 65.8198 12.1049 65.7825 12.3289C65.4838 14.1956 65.3718 16.6409 65.4465 19.6649C65.5211 22.6889 65.7265 25.1716 66.0625 27.1129C66.0998 27.2996 66.0438 27.4116 65.8945 27.4489C65.7825 27.4489 65.6891 27.3369 65.6145 27.1129C65.0918 25.5076 64.5131 24.1822 63.8785 23.1369C63.2811 22.0916 62.6465 21.3076 61.9745 20.7849C61.3398 20.2249 60.6491 19.8889 59.9025 19.7769C59.1558 19.7022 58.1105 19.6649 56.7665 19.6649C56.3185 19.6649 56.0011 19.8329 55.8145 20.1689C55.6651 20.5049 55.5905 20.8969 55.5905 21.3449V36.3529C55.5905 37.1369 55.6465 37.7716 55.7585 38.2569C55.9078 38.7422 56.1131 39.0969 56.3745 39.3209C56.6731 39.5449 57.0651 39.6569 57.5505 39.6569C60.0518 39.6569 62.4038 39.2649 64.6065 38.4809C66.8091 37.6969 68.6758 36.5396 70.2065 35.0089C70.9905 34.2622 71.6998 33.4036 72.3345 32.4329C73.0065 31.4249 73.6038 30.2676 74.1265 28.9609C74.6865 27.6542 75.1905 26.1422 75.6385 24.4249C75.7131 24.2382 75.7878 24.1262 75.8625 24.0889C75.9371 24.0516 75.9931 24.0889 76.0305 24.2009C76.0678 24.2756 76.0678 24.3689 76.0305 24.4809C75.6198 27.1316 75.3211 29.7262 75.1345 32.2649C74.9851 34.7662 74.8918 37.1556 74.8545 39.4329C74.8545 39.9929 74.7425 40.3849 74.5185 40.6089C74.3318 40.8329 74.0331 40.9449 73.6225 40.9449C73.1745 40.9822 72.5025 40.9262 71.6065 40.7769C68.6945 40.3662 65.6705 40.1609 62.5345 40.1609H45.1745ZM94.734 23.6969C94.5474 23.6596 94.454 23.5662 94.454 23.4169C94.454 23.2676 94.5474 23.1929 94.734 23.1929L96.582 23.2489C99.0087 23.2489 100.894 22.3156 102.238 20.4489C103.582 18.5449 104.235 16.1369 104.198 13.2249C104.161 11.2836 103.843 9.39822 103.246 7.56889C102.649 5.70222 101.771 4.17155 100.614 2.97689C99.494 1.74489 98.206 1.12889 96.75 1.12889L94.902 1.01689C94.118 1.01689 93.5954 1.20355 93.334 1.57689C93.11 1.91289 92.998 2.52889 92.998 3.42489V32.6009C92.998 34.2809 93.2407 35.6622 93.726 36.7449C94.2114 37.8276 94.846 38.6116 95.63 39.0969C96.414 39.5449 97.31 39.7876 98.318 39.8249C98.5047 39.8249 98.6354 39.8622 98.71 39.9369C98.822 40.0116 98.822 40.0862 98.71 40.1609C98.6354 40.2729 98.5047 40.3289 98.318 40.3289C97.31 40.2542 96.2834 40.2169 95.238 40.2169C94.7527 40.2169 94.2114 40.1982 93.614 40.1609H82.582C82.0967 40.1982 81.6674 40.2169 81.294 40.2169C80.51 40.2169 79.726 40.2542 78.942 40.3289C78.7927 40.3289 78.6807 40.2729 78.606 40.1609C78.5687 40.0862 78.5687 40.0116 78.606 39.9369C78.6434 39.8622 78.7554 39.8249 78.942 39.8249C79.726 39.7876 80.4167 39.5449 81.014 39.0969C81.6487 38.6116 82.134 37.8276 82.47 36.7449C82.8434 35.6622 83.03 34.2809 83.03 32.6009V8.52089C83.03 6.84089 82.8434 5.47822 82.47 4.43289C82.134 3.35022 81.6487 2.58489 81.014 2.13689C80.4167 1.65155 79.7074 1.40889 78.886 1.40889C78.7367 1.40889 78.6247 1.37155 78.55 1.29689C78.5127 1.18489 78.5314 1.09155 78.606 1.01689C78.6807 0.94222 78.774 0.904887 78.886 0.904887C79.7447 0.94222 80.958 0.960886 82.526 0.960886C84.206 0.960886 86.1847 0.904887 88.462 0.792888C92.158 0.643555 95.3314 0.568888 97.982 0.568888C101.79 0.568888 104.945 1.01689 107.446 1.91289C109.985 2.77155 111.87 4.07822 113.102 5.83289C114.371 7.55022 115.006 9.69689 115.006 12.2729C115.006 14.8116 114.353 16.9956 113.046 18.8249C111.777 20.6542 109.779 22.0169 107.054 22.9129C104.366 23.8089 101.025 24.1076 97.03 23.8089L94.734 23.6969ZM133.672 23.6969C133.485 23.6596 133.392 23.5662 133.392 23.4169C133.392 23.2676 133.485 23.1929 133.672 23.1929L135.52 23.2489C137.946 23.2489 139.832 22.3156 141.176 20.4489C142.52 18.5449 143.173 16.1369 143.136 13.2249C143.098 11.2836 142.781 9.39822 142.184 7.56889C141.586 5.70222 140.709 4.17155 139.552 2.97689C138.432 1.74489 137.144 1.12889 135.688 1.12889L133.84 1.01689C133.056 1.01689 132.533 1.20355 132.272 1.57689C132.048 1.91289 131.936 2.52889 131.936 3.42489V32.6009C131.936 34.2809 132.178 35.6622 132.664 36.7449C133.149 37.8276 133.784 38.6116 134.568 39.0969C135.352 39.5449 136.248 39.7876 137.256 39.8249C137.442 39.8249 137.573 39.8622 137.648 39.9369C137.76 40.0116 137.76 40.0862 137.648 40.1609C137.573 40.2729 137.442 40.3289 137.256 40.3289C136.248 40.2542 135.221 40.2169 134.176 40.2169C133.69 40.2169 133.149 40.1982 132.552 40.1609H121.52C121.034 40.1982 120.605 40.2169 120.232 40.2169C119.448 40.2169 118.664 40.2542 117.88 40.3289C117.73 40.3289 117.618 40.2729 117.544 40.1609C117.506 40.0862 117.506 40.0116 117.544 39.9369C117.581 39.8622 117.693 39.8249 117.88 39.8249C118.664 39.7876 119.354 39.5449 119.952 39.0969C120.586 38.6116 121.072 37.8276 121.408 36.7449C121.781 35.6622 121.968 34.2809 121.968 32.6009V8.52089C121.968 6.84089 121.781 5.47822 121.408 4.43289C121.072 3.35022 120.586 2.58489 119.952 2.13689C119.354 1.65155 118.645 1.40889 117.824 1.40889C117.674 1.40889 117.562 1.37155 117.488 1.29689C117.45 1.18489 117.469 1.09155 117.544 1.01689C117.618 0.94222 117.712 0.904887 117.824 0.904887C118.682 0.94222 119.896 0.960886 121.464 0.960886C123.144 0.960886 125.122 0.904887 127.4 0.792888C131.096 0.643555 134.269 0.568888 136.92 0.568888C140.728 0.568888 143.882 1.01689 146.384 1.91289C148.922 2.77155 150.808 4.07822 152.04 5.83289C153.309 7.55022 153.944 9.69689 153.944 12.2729C153.944 14.8116 153.29 16.9956 151.984 18.8249C150.714 20.6542 148.717 22.0169 145.992 22.9129C143.304 23.8089 139.962 24.1076 135.968 23.8089L133.672 23.6969ZM160.401 40.1609C159.953 40.1982 159.524 40.2169 159.113 40.2169C158.366 40.2169 157.582 40.2542 156.761 40.3289C156.649 40.3289 156.556 40.2729 156.481 40.1609C156.406 40.0862 156.388 40.0116 156.425 39.9369C156.5 39.8622 156.612 39.8249 156.761 39.8249C157.582 39.7876 158.292 39.5449 158.889 39.0969C159.486 38.6116 159.953 37.8276 160.289 36.7449C160.662 35.6622 160.849 34.2809 160.849 32.6009V8.52089C160.849 6.84089 160.662 5.45955 160.289 4.37689C159.953 3.29422 159.486 2.52889 158.889 2.08089C158.292 1.59555 157.582 1.33422 156.761 1.29689C156.612 1.29689 156.5 1.25955 156.425 1.18489C156.388 1.11022 156.406 1.03555 156.481 0.960886C156.556 0.848887 156.649 0.792888 156.761 0.792888C157.582 0.867554 158.366 0.904887 159.113 0.904887C159.524 0.904887 159.953 0.923553 160.401 0.960886H177.089C179.964 0.960886 182.745 0.755553 185.433 0.344887C186.516 0.232886 187.169 0.176886 187.393 0.176886C187.804 0.176886 188.102 0.288887 188.289 0.512888C188.513 0.699555 188.644 1.09155 188.681 1.68889C188.868 6.13155 189.278 11.2089 189.913 16.9209C189.95 17.0702 189.913 17.1636 189.801 17.2009C189.726 17.2382 189.652 17.1822 189.577 17.0329C188.83 14.8676 188.14 13.0942 187.505 11.7129C186.87 10.2942 186.273 9.11822 185.713 8.18489C185.153 7.25155 184.537 6.43022 183.865 5.72089C182.857 4.60089 181.774 3.72355 180.617 3.08889C179.46 2.45422 178.228 2.02489 176.921 1.80089C175.614 1.57689 174.177 1.46489 172.609 1.46489C171.974 1.46489 171.508 1.68889 171.209 2.13689C170.948 2.58489 170.817 3.16355 170.817 3.87289V17.4809C170.817 17.9289 170.892 18.3209 171.041 18.6569C171.228 18.9929 171.545 19.1609 171.993 19.1609C173.486 19.1609 174.532 19.1236 175.129 19.0489C175.913 18.9369 176.604 18.6569 177.201 18.2089C177.836 17.7609 178.433 17.0702 178.993 16.1369C179.553 15.1662 180.076 13.8969 180.561 12.3289C180.636 12.1049 180.729 11.9929 180.841 11.9929C180.99 11.9929 181.046 12.1049 181.009 12.3289C180.71 14.1956 180.598 16.6409 180.673 19.6649C180.748 22.6889 180.953 25.1716 181.289 27.1129C181.326 27.2996 181.27 27.4116 181.121 27.4489C181.009 27.4489 180.916 27.3369 180.841 27.1129C180.318 25.5076 179.74 24.1822 179.105 23.1369C178.508 22.0916 177.873 21.3076 177.201 20.7849C176.566 20.2249 175.876 19.8889 175.129 19.7769C174.382 19.7022 173.337 19.6649 171.993 19.6649C171.545 19.6649 171.228 19.8329 171.041 20.1689C170.892 20.5049 170.817 20.8969 170.817 21.3449V36.3529C170.817 37.1369 170.873 37.7716 170.985 38.2569C171.134 38.7422 171.34 39.0969 171.601 39.3209C171.9 39.5449 172.292 39.6569 172.777 39.6569C175.278 39.6569 177.63 39.2649 179.833 38.4809C182.036 37.6969 183.902 36.5396 185.433 35.0089C186.217 34.2622 186.926 33.4036 187.561 32.4329C188.233 31.4249 188.83 30.2676 189.353 28.9609C189.913 27.6542 190.417 26.1422 190.865 24.4249C190.94 24.2382 191.014 24.1262 191.089 24.0889C191.164 24.0516 191.22 24.0889 191.257 24.2009C191.294 24.2756 191.294 24.3689 191.257 24.4809C190.846 27.1316 190.548 29.7262 190.361 32.2649C190.212 34.7662 190.118 37.1556 190.081 39.4329C190.081 39.9929 189.969 40.3849 189.745 40.6089C189.558 40.8329 189.26 40.9449 188.849 40.9449C188.401 40.9822 187.729 40.9262 186.833 40.7769C183.921 40.3662 180.897 40.1609 177.761 40.1609H160.401ZM210.129 21.4009C209.942 21.4009 209.849 21.3449 209.849 21.2329C209.849 21.1209 209.961 21.0462 210.185 21.0089L211.417 20.9529C213.321 20.7289 214.833 20.1876 215.953 19.3289C217.11 18.4702 217.931 17.3129 218.417 15.8569C218.939 14.3636 219.201 12.5156 219.201 10.3129C219.201 8.22222 218.883 6.50489 218.249 5.16089C217.614 3.77955 216.718 2.77155 215.561 2.13689C214.403 1.46489 213.041 1.12889 211.473 1.12889L210.129 1.07289C209.419 1.03555 208.915 1.18489 208.617 1.52089C208.355 1.81955 208.225 2.39822 208.225 3.25689V32.6009C208.225 34.2809 208.393 35.6622 208.729 36.7449C209.102 37.8276 209.587 38.6116 210.185 39.0969C210.819 39.5449 211.529 39.7876 212.313 39.8249C212.462 39.8249 212.555 39.8622 212.593 39.9369C212.667 40.0116 212.667 40.0862 212.593 40.1609C212.518 40.2729 212.425 40.3289 212.313 40.3289C211.491 40.2542 210.707 40.2169 209.961 40.2169C209.587 40.2169 209.158 40.1982 208.673 40.1609H197.809C197.323 40.1982 196.894 40.2169 196.521 40.2169C195.737 40.2169 194.953 40.2542 194.169 40.3289C194.019 40.3289 193.907 40.2729 193.833 40.1609C193.795 40.0862 193.795 40.0116 193.833 39.9369C193.87 39.8622 193.982 39.8249 194.169 39.8249C194.953 39.7876 195.643 39.5449 196.241 39.0969C196.875 38.6116 197.361 37.8276 197.697 36.7449C198.07 35.6622 198.257 34.2809 198.257 32.6009V8.52089C198.257 6.84089 198.07 5.47822 197.697 4.43289C197.361 3.35022 196.875 2.58489 196.241 2.13689C195.643 1.65155 194.934 1.39022 194.113 1.35289C193.963 1.35289 193.851 1.31555 193.777 1.24089C193.739 1.16622 193.758 1.09155 193.833 1.01689C193.907 0.904887 194.001 0.848887 194.113 0.848887C194.971 0.923553 196.185 0.960886 197.753 0.960886C199.395 0.960886 201.393 0.904887 203.745 0.792888C207.478 0.643555 210.614 0.568888 213.153 0.568888C219.089 0.568888 223.457 1.42755 226.257 3.14489C229.057 4.82489 230.457 7.51289 230.457 11.2089C230.457 13.2249 229.878 14.9609 228.721 16.4169C227.601 17.8729 225.902 19.0302 223.625 19.8889C221.385 20.7476 218.585 21.2889 215.225 21.5129V21.7929L210.129 21.4009ZM212.145 21.2329C213.862 21.4942 215.635 21.6622 217.465 21.7369C219.331 21.7742 221.161 21.6809 222.953 21.4569C223.139 21.4196 223.307 21.4756 223.457 21.6249C223.643 21.7369 223.774 21.9049 223.849 22.1289C225.006 26.9822 226.593 31.3502 228.609 35.2329C230.662 39.0782 232.958 41.6542 235.497 42.9609L236.001 43.1849C236.225 43.2596 236.299 43.3529 236.225 43.4649C236.187 43.6142 236.075 43.6516 235.889 43.5769C231.894 42.5689 228.571 41.2622 225.921 39.6569C223.27 38.0142 220.843 35.7556 218.641 32.8809C216.475 29.9689 214.31 26.0862 212.145 21.2329ZM46.445 99.6569C46.6316 101.337 46.949 102.718 47.397 103.801C47.8823 104.846 48.4236 105.612 49.021 106.097C49.6556 106.545 50.365 106.788 51.149 106.825C51.3356 106.825 51.4476 106.862 51.485 106.937C51.5223 107.012 51.5036 107.086 51.429 107.161C51.3543 107.273 51.261 107.329 51.149 107.329C50.3276 107.254 49.5436 107.217 48.797 107.217C48.3863 107.217 47.957 107.198 47.509 107.161H36.421C35.749 107.198 35.1143 107.217 34.517 107.217C33.4343 107.217 32.2956 107.254 31.101 107.329C30.9143 107.329 30.765 107.273 30.653 107.161C30.5783 107.086 30.5783 107.012 30.653 106.937C30.7276 106.862 30.877 106.825 31.101 106.825C32.221 106.788 33.2103 106.545 34.069 106.097C34.9276 105.612 35.581 104.846 36.029 103.801C36.477 102.718 36.589 101.337 36.365 99.6569L33.565 75.2969C33.5276 75.0356 33.4156 74.9049 33.229 74.9049C33.0796 74.9049 32.949 75.0356 32.837 75.2969L21.917 104.753C21.8796 104.94 21.8236 105.07 21.749 105.145C21.6743 105.22 21.581 105.257 21.469 105.257C21.2823 105.257 21.1143 105.108 20.965 104.809L9.70896 75.4649C9.6343 75.2409 9.50363 75.1289 9.31696 75.1289C9.1303 75.1289 9.0183 75.2596 8.98096 75.5209L6.51696 99.6569C6.3303 101.337 6.46096 102.718 6.90896 103.801C7.35696 104.846 8.0103 105.612 8.86896 106.097C9.76496 106.545 10.7543 106.788 11.837 106.825C12.0983 106.825 12.2663 106.862 12.341 106.937C12.4156 107.012 12.397 107.086 12.285 107.161C12.2103 107.273 12.061 107.329 11.837 107.329C10.6796 107.254 9.54096 107.217 8.42096 107.217C7.86096 107.217 7.24496 107.198 6.57296 107.161H4.89296C4.44496 107.198 4.01563 107.217 3.60496 107.217C2.8583 107.217 2.09296 107.254 1.30896 107.329C1.15963 107.329 1.04763 107.273 0.972963 107.161C0.93563 107.086 0.93563 107.012 0.972963 106.937C1.0103 106.862 1.1223 106.825 1.30896 106.825C2.09296 106.788 2.78363 106.545 3.38096 106.097C4.01563 105.612 4.55696 104.846 5.00496 103.801C5.45296 102.718 5.7703 101.337 5.95696 99.6569L8.75696 73.2809L9.54096 75.0729C9.0183 73.8036 8.49563 72.7396 7.97296 71.8809C7.48763 71.0222 7.0023 70.3129 6.51696 69.7529C6.06896 69.2676 5.6023 68.9129 5.11696 68.6889C4.63163 68.4276 4.10896 68.2969 3.54896 68.2969C3.3623 68.2969 3.2503 68.2596 3.21296 68.1849C3.17563 68.1102 3.17563 68.0356 3.21296 67.9609C3.28763 67.8489 3.39963 67.7929 3.54896 67.7929C4.3703 67.8676 5.1543 67.9049 5.90096 67.9049C6.2743 67.9049 6.70363 67.9236 7.18896 67.9609H15.925C16.261 67.9609 16.541 68.0356 16.765 68.1849C17.0263 68.2969 17.1943 68.5022 17.269 68.8009L25.669 90.7529C25.7436 90.9396 25.8183 91.0329 25.893 91.0329C26.005 91.0329 26.0983 90.9396 26.173 90.7529L34.797 68.5209C34.8343 68.3342 34.909 68.2036 35.021 68.1289C35.1703 68.0169 35.301 67.9609 35.413 67.9609H43.477C43.925 67.9236 44.373 67.9049 44.821 67.9049C45.6796 67.9049 46.5383 67.8676 47.397 67.7929C47.5836 67.7929 47.6956 67.8489 47.733 67.9609C47.8076 68.0356 47.8076 68.1102 47.733 68.1849C47.6956 68.2596 47.5836 68.2969 47.397 68.2969C46.5756 68.3342 45.829 68.5956 45.157 69.0809C44.5223 69.5289 44.0556 70.2942 43.757 71.3769C43.4956 72.4222 43.4583 73.7849 43.645 75.4649L46.445 99.6569ZM57.8725 75.5209C57.8725 73.8409 57.6858 72.4596 57.3125 71.3769C56.9765 70.2942 56.5098 69.5289 55.9125 69.0809C55.3151 68.5956 54.6058 68.3342 53.7845 68.2969C53.6351 68.2969 53.5231 68.2596 53.4485 68.1849C53.4111 68.1102 53.4298 68.0356 53.5045 67.9609C53.5791 67.8489 53.6725 67.7929 53.7845 67.7929C54.6058 67.8676 55.3898 67.9049 56.1365 67.9049C56.5471 67.9049 56.9765 67.9236 57.4245 67.9609H68.2885C68.7738 67.9236 69.2218 67.9049 69.6325 67.9049C70.3791 67.9049 71.1445 67.8676 71.9285 67.7929C72.0778 67.7929 72.1711 67.8489 72.2085 67.9609C72.2831 68.0356 72.3018 68.1102 72.2645 68.1849C72.2271 68.2596 72.1151 68.2969 71.9285 68.2969C71.1445 68.3342 70.4538 68.5956 69.8565 69.0809C69.2591 69.5289 68.7738 70.2942 68.4005 71.3769C68.0271 72.4596 67.8405 73.8409 67.8405 75.5209V99.6009C67.8405 101.281 68.0271 102.662 68.4005 103.745C68.7738 104.828 69.2591 105.612 69.8565 106.097C70.4538 106.545 71.1445 106.788 71.9285 106.825C72.1151 106.825 72.2271 106.862 72.2645 106.937C72.3018 107.012 72.2831 107.086 72.2085 107.161C72.1711 107.273 72.0778 107.329 71.9285 107.329C71.1445 107.254 70.3791 107.217 69.6325 107.217C69.2218 107.217 68.7738 107.198 68.2885 107.161H57.4245C56.9765 107.198 56.5471 107.217 56.1365 107.217C55.3898 107.217 54.6058 107.254 53.7845 107.329C53.6725 107.329 53.5791 107.273 53.5045 107.161C53.4298 107.086 53.4111 107.012 53.4485 106.937C53.5231 106.862 53.6351 106.825 53.7845 106.825C54.6058 106.788 55.3151 106.545 55.9125 106.097C56.5098 105.612 56.9765 104.828 57.3125 103.745C57.6858 102.662 57.8725 101.281 57.8725 99.6009V75.5209ZM111.27 75.5209C111.27 73.8409 111.084 72.4596 110.71 71.3769C110.337 70.2942 109.852 69.5289 109.254 69.0809C108.657 68.5956 107.966 68.3342 107.182 68.2969C106.996 68.2969 106.865 68.2596 106.79 68.1849C106.753 68.1102 106.772 68.0356 106.846 67.9609C106.958 67.8489 107.07 67.7929 107.182 67.7929C108.004 67.8676 108.788 67.9049 109.534 67.9049C109.908 67.9049 110.337 67.9236 110.822 67.9609H112.39C112.838 67.9236 113.268 67.9049 113.678 67.9049C114.425 67.9049 115.19 67.8676 115.974 67.7929C116.124 67.7929 116.236 67.8489 116.31 67.9609C116.385 68.0356 116.385 68.1102 116.31 68.1849C116.273 68.2596 116.161 68.2969 115.974 68.2969C115.19 68.3342 114.5 68.5956 113.902 69.0809C113.305 69.5289 112.82 70.2942 112.446 71.3769C112.073 72.4596 111.886 73.8409 111.886 75.5209V107.497C111.886 107.609 111.849 107.702 111.774 107.777C111.737 107.852 111.662 107.889 111.55 107.889C111.364 107.889 111.177 107.777 110.99 107.553L82.0942 73.0009C81.9449 72.8516 81.8142 72.7769 81.7022 72.7769C81.5155 72.7769 81.4222 72.9076 81.4222 73.1689V99.6569C81.4222 101.337 81.5902 102.718 81.9262 103.801C82.2995 104.846 82.7849 105.612 83.3822 106.097C84.0169 106.545 84.7262 106.788 85.5102 106.825C85.6969 106.825 85.8089 106.881 85.8462 106.993C85.8835 107.068 85.8649 107.142 85.7902 107.217C85.7529 107.292 85.6595 107.329 85.5102 107.329C84.7262 107.292 83.9422 107.273 83.1582 107.273C82.7849 107.236 82.3555 107.217 81.8702 107.217H80.3022C79.8169 107.217 79.3875 107.236 79.0142 107.273C78.2675 107.273 77.4835 107.292 76.6622 107.329C76.5502 107.329 76.4569 107.292 76.3822 107.217C76.3075 107.142 76.2889 107.068 76.3262 106.993C76.4009 106.881 76.5129 106.825 76.6622 106.825C77.4462 106.788 78.1369 106.545 78.7342 106.097C79.3689 105.612 79.8542 104.846 80.1902 103.801C80.5635 102.718 80.7502 101.337 80.7502 99.6569L80.8062 71.3769L83.3262 74.2329C82.9529 73.8222 82.5982 73.4302 82.2622 73.0569C81.9635 72.6836 81.6462 72.3289 81.3102 71.9929C80.5262 71.0969 79.8355 70.3876 79.2382 69.8649C78.6782 69.3422 78.1369 68.9502 77.6142 68.6889C77.0915 68.4276 76.5315 68.2969 75.9342 68.2969C75.7849 68.2969 75.6729 68.2596 75.5982 68.1849C75.5609 68.0729 75.5795 67.9796 75.6542 67.9049C75.7289 67.8302 75.8222 67.7929 75.9342 67.7929C77.1662 67.8302 78.3795 67.8676 79.5742 67.9049L88.8702 67.9609C89.9902 67.9609 90.7742 68.2782 91.2222 68.9129L110.598 92.7689C110.748 92.9556 110.916 93.0489 111.102 93.0489C111.252 93.0489 111.326 92.8996 111.326 92.6009L111.27 75.5209ZM120.088 67.1769C120.573 67.1769 121.227 67.2329 122.048 67.3449C124.997 67.7556 128.376 67.9609 132.184 67.9609C132.707 67.9982 133.099 68.1662 133.36 68.4649C133.659 68.7636 133.696 69.0996 133.472 69.4729C133.285 69.8462 132.856 70.1822 132.184 70.4809C132.184 69.9209 132.091 69.4356 131.904 69.0249C131.755 68.6142 131.531 68.4089 131.232 68.4089C130.224 68.4089 129.384 68.4462 128.712 68.5209C128.077 68.5956 127.629 68.6889 127.368 68.8009C126.248 69.1742 125.184 69.9209 124.176 71.0409C123.205 72.1236 122.272 73.5982 121.376 75.4649C120.48 77.2942 119.621 79.5156 118.8 82.1289C118.725 82.3529 118.613 82.4462 118.464 82.4089C118.315 82.3716 118.259 82.2409 118.296 82.0169C118.632 79.5529 118.837 77.2756 118.912 75.1849C118.987 73.0569 118.968 70.8916 118.856 68.6889C118.819 68.1289 118.893 67.7369 119.08 67.5129C119.304 67.2889 119.64 67.1769 120.088 67.1769ZM154.248 67.1769C154.659 67.1769 154.957 67.2889 155.144 67.5129C155.368 67.7369 155.48 68.1289 155.48 68.6889C155.331 70.7796 155.293 72.8889 155.368 75.0169C155.443 77.1449 155.648 79.4782 155.984 82.0169C156.021 82.2409 155.965 82.3716 155.816 82.4089C155.704 82.4462 155.611 82.3529 155.536 82.1289C154.64 79.4409 153.725 77.1822 152.792 75.3529C151.896 73.4862 150.963 72.0302 149.992 70.9849C149.021 69.9022 147.995 69.1742 146.912 68.8009C146.651 68.6889 146.184 68.5956 145.512 68.5209C144.877 68.4462 144.056 68.4089 143.048 68.4089C142.749 68.4089 142.525 68.6142 142.376 69.0249C142.227 69.4356 142.152 69.9209 142.152 70.4809C141.443 70.1822 140.995 69.8462 140.808 69.4729C140.584 69.0996 140.603 68.7636 140.864 68.4649C141.163 68.1662 141.592 67.9982 142.152 67.9609C145.96 67.9609 149.32 67.7556 152.232 67.3449C153.203 67.2329 153.875 67.1769 154.248 67.1769ZM142.152 99.6009C142.152 101.281 142.395 102.662 142.88 103.745C143.365 104.828 144.019 105.612 144.84 106.097C145.699 106.545 146.651 106.788 147.696 106.825C147.92 106.825 148.069 106.862 148.144 106.937C148.219 107.012 148.2 107.086 148.088 107.161C148.013 107.273 147.883 107.329 147.696 107.329C146.651 107.254 145.587 107.217 144.504 107.217C144.019 107.217 143.459 107.198 142.824 107.161H131.512C130.877 107.198 130.299 107.217 129.776 107.217C128.731 107.217 127.667 107.254 126.584 107.329C126.397 107.329 126.248 107.273 126.136 107.161C126.061 107.086 126.061 107.012 126.136 106.937C126.211 106.862 126.36 106.825 126.584 106.825C127.667 106.788 128.619 106.545 129.44 106.097C130.261 105.612 130.915 104.828 131.4 103.745C131.923 102.662 132.184 101.281 132.184 99.6009V67.9609H142.152V99.6009Z" fill="#F10009"/>
</svg>
