<svg width="427" height="221" viewBox="0 0 427 221" fill="none" xmlns="http://www.w3.org/2000/svg">
<path d="M5.43988 182.384C7.33875 185.959 10.9068 188.342 14.9495 188.678C25.4852 189.548 45.6071 179.665 56.0662 169.813C67.735 158.815 87.1678 134.42 94.0435 121.574C94.9623 119.847 97.535 120.122 98.071 122.001C101.945 135.566 114.334 157.44 127.626 157.44C148.039 157.44 174.439 109.796 182.907 94.4142C183.888 92.627 186.567 93.0394 186.966 95.0405C192.141 121.329 222.079 221 293.762 221C374.326 221 438.443 106.573 424.845 119.145C414.753 128.478 363.514 214.218 307.651 214.218C264.406 214.218 234.866 169.736 228.297 150.688C221.482 130.937 211.482 72.9983 214.086 51.2006C216.306 32.5954 199.216 40.0344 189.048 44.1434C185.725 45.4877 182.831 47.7178 180.702 50.6049L133.093 126.171C132.036 127.607 129.8 127.241 129.249 125.545L122.067 86.7308C120.536 82.0413 116.018 78.971 111.072 79.2917L97.489 80.1624C92.8491 80.4679 88.7144 83.1716 86.6165 87.3265C80.6749 99.0731 66.3415 134.863 57.4291 145.388C30.753 176.87 13.6173 161.427 8.97729 161.427C-7.60718 161.427 5.37863 182.369 5.37863 182.369L5.43988 182.384Z" fill="black" fill-opacity="0.3"/>
<path d="M329.273 188.846C309.779 196.514 292.414 196.88 277.177 189.976C272.69 187.624 268.509 184.553 264.65 180.75C249.735 166.055 239.567 140.545 234.146 104.221C231.864 87.4946 230.624 54.4237 230.456 39.4998C230.287 24.5759 231.267 14.5096 233.411 9.30071C233.87 8.24672 234.498 7.37603 235.325 6.67337C236.137 5.98598 237.638 4.99309 239.781 3.74053C241.313 2.80874 242.507 2.1519 243.334 1.75475C244.176 1.35759 244.896 1.08264 245.524 0.960435C246.152 0.822958 246.841 0.761857 247.607 0.746582C248.74 0.746582 249.536 0.899334 249.965 1.23539C250.394 1.55617 250.639 1.75475 250.7 1.83112C251.297 2.42686 251.802 3.67943 252.216 5.57355C252.767 7.62043 253.227 10.7824 253.594 15.1053C253.962 19.4129 254.406 25.2939 254.896 32.7329C258.403 84.0882 266.35 138.667 278.708 161.931C280.99 165.872 283.18 168.881 285.278 170.943C287.376 173.005 288.616 174.243 289.029 174.624C292.23 177.771 295.185 180.032 297.911 181.407C304.129 184.141 310.53 186.722 317.038 186.554C324.327 186.585 331.785 184.553 339.441 180.429C345 177.435 350.559 173.433 356.133 168.392C369.425 156.875 388.23 133.015 412.655 99.3787C415.136 95.8043 416.989 93.3145 418.214 91.8939C419.439 90.4733 420.48 89.5262 421.353 89.0679L421.721 88.8694C423.39 88.0751 424.4 87.8307 424.722 88.1667L424.829 88.2584C425.166 88.793 424.278 90.5802 422.149 93.6505C420.021 96.7208 416.468 101.639 411.491 108.376C397.204 127.943 385.382 142.928 376.025 153.346C366.669 163.764 357.756 171.86 349.303 177.618C346.118 179.742 343.285 181.514 340.835 182.949C338.369 184.385 336.593 185.394 335.475 185.989C333.132 187.257 331.05 188.219 329.258 188.876L329.273 188.846Z" fill="black" fill-opacity="0.3"/>
</svg>
